<svg width="249" height="64" viewBox="0 0 249 64" fill="none" xmlns="http://www.w3.org/2000/svg">
<path d="M28.3535 47V20.0909H47.747V25.9773H35.6589V30.6023H46.7484V36.4886H35.6589V41.1136H47.6944V47H28.3535ZM51.3701 20.0909H60.4624L66.7167 35.3324H67.032L73.2863 20.0909H82.3786V47H75.2309V31.4432H75.0207L69.0292 46.7898H64.7195L58.7281 31.3381H58.5178V47H51.3701V20.0909ZM85.8408 47V20.0909H97.4559C99.453 20.0909 101.201 20.4851 102.698 21.2734C104.196 22.0618 105.361 23.1699 106.193 24.5977C107.026 26.0254 107.442 27.6941 107.442 29.6037C107.442 31.5308 107.012 33.1995 106.154 34.6097C105.304 36.02 104.109 37.1062 102.567 37.8683C101.034 38.6303 99.2428 39.0114 97.1931 39.0114H90.2556V33.3352H95.7215C96.5799 33.3352 97.3113 33.1863 97.9157 32.8885C98.5289 32.5819 98.9975 32.1483 99.3216 31.5877C99.6545 31.0271 99.8209 30.3658 99.8209 29.6037C99.8209 28.8329 99.6545 28.1759 99.3216 27.6328C98.9975 27.081 98.5289 26.6605 97.9157 26.3714C97.3113 26.0736 96.5799 25.9247 95.7215 25.9247H93.1462V47H85.8408ZM142.615 30.1818H135.205C135.152 29.5687 135.012 29.0124 134.784 28.5131C134.565 28.0138 134.259 27.5846 133.865 27.2255C133.479 26.8576 133.011 26.5773 132.459 26.3846C131.907 26.1831 131.281 26.0824 130.58 26.0824C129.353 26.0824 128.315 26.3802 127.466 26.9759C126.625 27.5715 125.985 28.4255 125.547 29.538C125.118 30.6504 124.904 31.9863 124.904 33.5455C124.904 35.1922 125.123 36.5719 125.561 37.6843C126.007 38.788 126.651 39.6201 127.492 40.1808C128.333 40.7326 129.345 41.0085 130.527 41.0085C131.202 41.0085 131.806 40.9253 132.34 40.7589C132.875 40.5837 133.339 40.334 133.733 40.0099C134.127 39.6858 134.447 39.296 134.692 38.8406C134.946 38.3763 135.117 37.8551 135.205 37.277L142.615 37.3295C142.528 38.4683 142.208 39.6289 141.656 40.8114C141.104 41.9852 140.32 43.0714 139.304 44.07C138.297 45.0598 137.049 45.8569 135.56 46.4613C134.07 47.0657 132.34 47.3679 130.37 47.3679C127.899 47.3679 125.683 46.8379 123.721 45.7781C121.768 44.7182 120.222 43.159 119.083 41.1005C117.953 39.042 117.388 36.5237 117.388 33.5455C117.388 30.5497 117.966 28.027 119.122 25.9773C120.279 23.9188 121.838 22.364 123.8 21.3129C125.762 20.253 127.952 19.723 130.37 19.723C132.069 19.723 133.632 19.9551 135.06 20.4194C136.488 20.8836 137.741 21.5625 138.818 22.456C139.896 23.3407 140.763 24.4312 141.42 25.7276C142.077 27.024 142.475 28.5088 142.615 30.1818ZM145.93 47V20.0909H157.545C159.542 20.0909 161.289 20.4544 162.787 21.1815C164.285 21.9085 165.45 22.9553 166.282 24.3217C167.114 25.6882 167.531 27.3262 167.531 29.2358C167.531 31.1629 167.101 32.7878 166.243 34.1104C165.393 35.4331 164.198 36.4317 162.656 37.1062C161.123 37.7807 159.332 38.1179 157.282 38.1179H150.344V32.4418H155.81C156.669 32.4418 157.4 32.3366 158.005 32.1264C158.618 31.9074 159.086 31.5614 159.411 31.0884C159.743 30.6154 159.91 29.9979 159.91 29.2358C159.91 28.465 159.743 27.8387 159.411 27.3569C159.086 26.8664 158.618 26.5072 158.005 26.2795C157.4 26.043 156.669 25.9247 155.81 25.9247H153.235V47H145.93ZM161.697 34.6491L168.424 47H160.488L153.918 34.6491H161.697ZM170.645 20.0909H179.737L185.991 35.3324H186.306L192.561 20.0909H201.653V47H194.505V31.4432H194.295L188.304 46.7898H183.994L178.002 31.3381H177.792V47H170.645V20.0909Z" fill="#192435"/>
<path d="M221.006 0H231.15C248.343 0 255.562 21.842 241.726 32C255.562 42.158 248.343 64 231.15 64H221.006L238.154 32L221.006 0Z" fill="white"/>
<path d="M218.148 0H228.292C245.485 0 252.704 21.842 238.868 32C252.704 42.158 245.485 64 228.292 64H218.148L235.296 32L218.148 0Z" fill="#1B1A40"/>
<path d="M215.29 0H225.434C242.627 0 249.846 21.842 236.01 32C249.846 42.158 242.627 64 225.434 64H215.29L232.438 32L215.29 0Z" fill="white"/>
<path d="M212.432 0H222.576C239.769 0 246.988 21.842 233.152 32C246.988 42.158 239.769 64 222.576 64H212.432L229.58 32L212.432 0Z" fill="#1B1A40"/>
<path d="M209.574 0H219.718C236.911 0 244.13 21.842 230.294 32C244.13 42.158 236.911 64 219.718 64H209.574L226.722 32L209.574 0Z" fill="white"/>
<path d="M206.716 0H216.86C234.053 0 241.272 21.842 227.436 32C241.272 42.158 234.053 64 216.86 64H206.716L223.864 32L206.716 0Z" fill="#1B1A40"/>
<path d="M203.858 0H214.002C231.195 0 238.414 21.842 224.578 32C238.414 42.158 231.195 64 214.002 64H203.858L221.006 32L203.858 0Z" fill="white"/>
<path d="M201 0H211.144C228.337 0 235.556 21.842 221.72 32C235.556 42.158 228.337 64 211.144 64H201L218.148 32L201 0Z" fill="#1B1A40"/>
</svg>
