<svg width="484" height="317" viewBox="0 0 484 317" fill="none" xmlns="http://www.w3.org/2000/svg">
<g filter="url(#filter0_d_25_196)">
<g filter="url(#filter1_dd_25_196)">
<rect x="4" y="1" width="459" height="301" rx="20" fill="#413D99"/>
</g>
<path d="M463.5 37.5L263.642 58.938C212.915 64.3794 174.417 107.135 174.308 158.154L174 302" stroke="#6C65FF" stroke-width="9"/>
<path d="M468 71L282.958 70.0295C227.357 69.7379 182.195 114.857 182.434 170.458L183 302" stroke="white" stroke-width="9"/>
<path d="M47.2763 52V31.6364H54.7337C56.1787 31.6364 57.3752 31.875 58.3232 32.3523C59.2711 32.8229 59.9804 33.4626 60.451 34.2713C60.9216 35.0734 61.157 35.9782 61.157 36.9858C61.157 37.8343 61.0012 38.5502 60.6896 39.1335C60.3781 39.7102 59.9605 40.1742 59.4368 40.5256C58.9197 40.8703 58.3497 41.1222 57.7266 41.2812V41.4801C58.4027 41.5133 59.0623 41.732 59.7053 42.1364C60.3549 42.5341 60.8918 43.1009 61.3161 43.8366C61.7403 44.5724 61.9524 45.4673 61.9524 46.5213C61.9524 47.562 61.7071 48.4967 61.2166 49.3253C60.7327 50.1473 59.9837 50.8002 58.9695 51.2841C57.9553 51.7614 56.6593 52 55.0817 52H47.2763ZM50.3487 49.3651H54.7834C56.255 49.3651 57.3089 49.08 57.9453 48.5099C58.5817 47.9399 58.8999 47.2273 58.8999 46.3722C58.8999 45.7292 58.7375 45.1392 58.4126 44.6023C58.0878 44.0653 57.6238 43.6378 57.0206 43.3196C56.424 43.0014 55.7147 42.8423 54.8928 42.8423H50.3487V49.3651ZM50.3487 40.446H54.4652C55.1546 40.446 55.7744 40.3134 56.3246 40.0483C56.8814 39.7831 57.3222 39.4119 57.647 38.9347C57.9785 38.4508 58.1442 37.8807 58.1442 37.2244C58.1442 36.3826 57.8492 35.6766 57.2592 35.1065C56.6693 34.5365 55.7644 34.2514 54.5447 34.2514H50.3487V40.446ZM67.7045 36.7273L71.0753 42.6733L74.4759 36.7273H77.7273L72.9645 44.3636L77.767 52H74.5156L71.0753 46.2926L67.6449 52H64.3835L69.1364 44.3636L64.4432 36.7273H67.7045ZM86.6115 52.3082C85.1797 52.3082 83.9302 51.9801 82.8629 51.3239C81.7957 50.6676 80.9671 49.7495 80.3771 48.5696C79.7872 47.3897 79.4922 46.0109 79.4922 44.4332C79.4922 42.849 79.7872 41.4635 80.3771 40.277C80.9671 39.0904 81.7957 38.169 82.8629 37.5128C83.9302 36.8565 85.1797 36.5284 86.6115 36.5284C88.0433 36.5284 89.2929 36.8565 90.3601 37.5128C91.4273 38.169 92.2559 39.0904 92.8459 40.277C93.4358 41.4635 93.7308 42.849 93.7308 44.4332C93.7308 46.0109 93.4358 47.3897 92.8459 48.5696C92.2559 49.7495 91.4273 50.6676 90.3601 51.3239C89.2929 51.9801 88.0433 52.3082 86.6115 52.3082ZM86.6214 49.8125C87.5495 49.8125 88.3184 49.5672 88.9283 49.0767C89.5381 48.5862 89.9889 47.9332 90.2805 47.1179C90.5788 46.3026 90.728 45.4044 90.728 44.4233C90.728 43.4489 90.5788 42.554 90.2805 41.7386C89.9889 40.9167 89.5381 40.2571 88.9283 39.7599C88.3184 39.2628 87.5495 39.0142 86.6214 39.0142C85.6868 39.0142 84.9112 39.2628 84.2947 39.7599C83.6849 40.2571 83.2308 40.9167 82.9325 41.7386C82.6409 42.554 82.495 43.4489 82.495 44.4233C82.495 45.4044 82.6409 46.3026 82.9325 47.1179C83.2308 47.9332 83.6849 48.5862 84.2947 49.0767C84.9112 49.5672 85.6868 49.8125 86.6214 49.8125ZM95.5579 56.4048V49.4247H96.8008C97.119 49.133 97.3874 48.785 97.6062 48.3807C97.8316 47.9763 98.0205 47.4957 98.1729 46.9389C98.332 46.3821 98.4646 45.7325 98.5707 44.9901C98.6767 44.241 98.7695 43.3859 98.8491 42.4247L99.3263 36.7273H109.707V49.4247H112.054V56.4048H109.15V52H98.5011V56.4048H95.5579ZM99.9826 49.4247H106.804V39.2727H101.991L101.673 42.4247C101.52 44.0289 101.328 45.4209 101.096 46.6009C100.864 47.7741 100.493 48.7154 99.9826 49.4247Z" fill="white"/>
<circle cx="119.5" cy="46.5" r="4.5" fill="white"/>
</g>
<defs>
<filter id="filter0_d_25_196" x="4" y="0" width="479.024" height="302.019" filterUnits="userSpaceOnUse" color-interpolation-filters="sRGB">
<feFlood flood-opacity="0" result="BackgroundImageFix"/>
<feColorMatrix in="SourceAlpha" type="matrix" values="0 0 0 0 0 0 0 0 0 0 0 0 0 0 0 0 0 0 127 0" result="hardAlpha"/>
<feOffset dx="15" dy="-1"/>
<feComposite in2="hardAlpha" operator="out"/>
<feColorMatrix type="matrix" values="0 0 0 0 0.314493 0 0 0 0 0.283333 0 0 0 0 1 0 0 0 1 0"/>
<feBlend mode="normal" in2="BackgroundImageFix" result="effect1_dropShadow_25_196"/>
<feBlend mode="normal" in="SourceGraphic" in2="effect1_dropShadow_25_196" result="shape"/>
</filter>
<filter id="filter1_dd_25_196" x="0" y="1" width="468" height="316" filterUnits="userSpaceOnUse" color-interpolation-filters="sRGB">
<feFlood flood-opacity="0" result="BackgroundImageFix"/>
<feColorMatrix in="SourceAlpha" type="matrix" values="0 0 0 0 0 0 0 0 0 0 0 0 0 0 0 0 0 0 127 0" result="hardAlpha"/>
<feOffset dy="11"/>
<feGaussianBlur stdDeviation="2"/>
<feComposite in2="hardAlpha" operator="out"/>
<feColorMatrix type="matrix" values="0 0 0 0 0 0 0 0 0 0 0 0 0 0 0 0 0 0 0.25 0"/>
<feBlend mode="normal" in2="BackgroundImageFix" result="effect1_dropShadow_25_196"/>
<feColorMatrix in="SourceAlpha" type="matrix" values="0 0 0 0 0 0 0 0 0 0 0 0 0 0 0 0 0 0 127 0" result="hardAlpha"/>
<feOffset dx="5"/>
<feComposite in2="hardAlpha" operator="out"/>
<feColorMatrix type="matrix" values="0 0 0 0 0.254902 0 0 0 0 0.239216 0 0 0 0 0.6 0 0 0 1 0"/>
<feBlend mode="normal" in2="effect1_dropShadow_25_196" result="effect2_dropShadow_25_196"/>
<feBlend mode="normal" in="SourceGraphic" in2="effect2_dropShadow_25_196" result="shape"/>
</filter>
</defs>
</svg>
