<svg width="19" height="19" viewBox="0 0 19 19" fill="none" xmlns="http://www.w3.org/2000/svg">
<path d="M16.4984 17.9946L14.923 16.4192C14.6934 17.0209 14.1234 17.4167 13.4584 17.4167H11.8117C11.7246 16.3004 11.4792 15.2396 11.0596 14.25H12.7538L5.5417 7.03794V8.70835C5.03503 8.50252 4.50462 8.33627 3.95837 8.2096V5.4546L0.878784 2.37502L1.89212 1.3696L17.5038 16.9892L16.4984 17.9946ZM13.4584 3.95835V10.925L15.0417 12.5084V2.37502C15.0417 1.95509 14.8749 1.55237 14.578 1.25543C14.281 0.958502 13.8783 0.791687 13.4584 0.791687H5.5417C4.94003 0.791687 4.42545 1.1321 4.15628 1.62294L6.4917 3.95835H13.4584ZM1.58337 15.8334V18.2084H3.95837C3.95837 16.8942 2.89753 15.8334 1.58337 15.8334ZM1.58337 12.6667V14.25C3.76837 14.25 5.5417 16.0234 5.5417 18.2084H7.12503C7.12503 15.1446 4.64712 12.6667 1.58337 12.6667ZM1.58337 9.50002V11.0834C3.47304 11.0834 5.28531 11.834 6.6215 13.1702C7.9577 14.5064 8.70837 16.3187 8.70837 18.2084H10.2917C10.2917 13.395 6.3967 9.50002 1.58337 9.50002Z" fill="#192435"/>
</svg>
