<svg width="19" height="19" viewBox="0 0 19 19" fill="none" xmlns="http://www.w3.org/2000/svg">
<path d="M15.1209 6.88752C16.5459 8.31252 16.5459 10.5292 15.1209 12.0334L15.9125 12.825C17.8917 11.0042 17.8917 7.99585 15.9125 6.09585L15.1209 6.88752ZM14.25 7.75835L13.4584 8.55002C13.8542 9.10419 13.8542 9.81669 13.4584 10.3709L14.25 11.1625C15.2 10.2125 15.2 8.78752 14.25 7.75835ZM11.0834 0.791687H3.16671C2.74678 0.791687 2.34405 0.958502 2.04712 1.25543C1.75019 1.55237 1.58337 1.95509 1.58337 2.37502V16.625C1.58337 17.0449 1.75019 17.4477 2.04712 17.7446C2.34405 18.0415 2.74678 18.2084 3.16671 18.2084H11.0834C11.5033 18.2084 11.906 18.0415 12.203 17.7446C12.4999 17.4477 12.6667 17.0449 12.6667 16.625V2.37502C12.6667 1.95509 12.4999 1.55237 12.203 1.25543C11.906 0.958502 11.5033 0.791687 11.0834 0.791687ZM11.0834 15.8334H3.16671V3.16669H11.0834V15.8334Z" fill="#192435"/>
</svg>
