<svg width="45" height="45" viewBox="0 0 45 45" fill="none" xmlns="http://www.w3.org/2000/svg">
<g clip-path="url(#clip0_24_32)">
<path d="M22.5 7.5C24.4891 7.5 26.3968 8.29018 27.8033 9.6967C29.2098 11.1032 30 13.0109 30 15C30 16.9891 29.2098 18.8968 27.8033 20.3033C26.3968 21.7098 24.4891 22.5 22.5 22.5C20.5109 22.5 18.6032 21.7098 17.1967 20.3033C15.7902 18.8968 15 16.9891 15 15C15 13.0109 15.7902 11.1032 17.1967 9.6967C18.6032 8.29018 20.5109 7.5 22.5 7.5ZM22.5 11.25C21.5054 11.25 20.5516 11.6451 19.8484 12.3483C19.1451 13.0516 18.75 14.0054 18.75 15C18.75 15.9946 19.1451 16.9484 19.8484 17.6516C20.5516 18.3549 21.5054 18.75 22.5 18.75C23.4946 18.75 24.4484 18.3549 25.1516 17.6516C25.8549 16.9484 26.25 15.9946 26.25 15C26.25 14.0054 25.8549 13.0516 25.1516 12.3483C24.4484 11.6451 23.4946 11.25 22.5 11.25ZM22.5 24.375C27.5063 24.375 37.5 26.8687 37.5 31.875V37.5H7.5V31.875C7.5 26.8687 17.4937 24.375 22.5 24.375ZM22.5 27.9375C16.9312 27.9375 11.0625 30.675 11.0625 31.875V33.9375H33.9375V31.875C33.9375 30.675 28.0688 27.9375 22.5 27.9375Z" fill="#F8F8F8"/>
</g>
<defs>
<clipPath id="clip0_24_32">
<rect width="45" height="45" fill="white"/>
</clipPath>
</defs>
</svg>
