<svg width="45" height="45" viewBox="0 0 45 45" fill="none" xmlns="http://www.w3.org/2000/svg">
<path d="M22.5 31.875C20.4375 31.875 18.75 30.1875 18.75 28.125C18.75 26.0625 20.4375 24.375 22.5 24.375C24.5625 24.375 26.25 26.0625 26.25 28.125C26.25 30.1875 24.5625 31.875 22.5 31.875ZM22.5 18.75C26.8875 18.75 35.625 20.925 35.625 25.3125V34.9312C35.625 36.5625 34.3313 37.95 32.5125 38.9813V25.0875C32.5125 24.0375 27.375 21.6375 22.5 21.6375C17.625 21.6375 12.4875 24.0375 12.4875 25.0875V35.1562C12.4875 35.625 13.7062 36.4875 15.525 37.2188C16.875 35.625 20.4937 34.8 22.5 34.8C24.9938 34.8 30 36.0375 30 38.55V40.1062C27.4312 41.025 24.5063 41.4937 22.5 41.4937C20.4937 41.4937 17.5875 41.025 15 40.1062C11.9438 39.0187 9.375 37.2937 9.375 34.9312V25.3125C9.375 20.925 18.1125 18.75 22.5 18.75ZM22.5 7.03125C20.6812 7.03125 19.2188 8.49375 19.2188 10.3125C19.2188 12.1313 20.6812 13.5938 22.5 13.5938C24.3188 13.5938 25.7812 12.1313 25.7812 10.3125C25.7812 8.49375 24.3188 7.03125 22.5 7.03125ZM22.5 16.875C18.8813 16.875 15.9375 13.9312 15.9375 10.3125C15.9375 6.69375 18.8813 3.75 22.5 3.75C26.1187 3.75 29.0625 6.69375 29.0625 10.3125C29.0625 13.9312 26.1187 16.875 22.5 16.875Z" fill="#F8F8F8"/>
</svg>
