<svg width="45" height="45" viewBox="0 0 45 45" fill="none" xmlns="http://www.w3.org/2000/svg">
<path d="M18.75 22.5C22.8937 22.5 26.25 19.1438 26.25 15C26.25 10.8562 22.8937 7.5 18.75 7.5C14.6062 7.5 11.25 10.8562 11.25 15C11.25 19.1438 14.6062 22.5 18.75 22.5ZM18.75 11.25C19.7446 11.25 20.6984 11.6451 21.4016 12.3483C22.1049 13.0516 22.5 14.0054 22.5 15C22.5 15.9946 22.1049 16.9484 21.4016 17.6516C20.6984 18.3549 19.7446 18.75 18.75 18.75C16.6687 18.75 15 17.0813 15 15C15 12.9187 16.6875 11.25 18.75 11.25ZM17.3813 37.5H3.75V31.875C3.75 26.8687 13.7437 24.375 18.75 24.375C20.7 24.375 23.4375 24.7687 25.9875 25.5187C24.375 26.1562 22.875 27.0375 21.5625 28.125C20.625 28.0125 19.6875 27.9375 18.75 27.9375C13.1812 27.9375 7.3125 30.675 7.3125 31.875V33.9375H17.2875C17.25 34.0312 17.1938 34.125 17.1375 34.2188L16.5938 35.625L17.1375 37.0312C17.2125 37.1812 17.3063 37.3312 17.3813 37.5ZM31.875 33.75C32.925 33.75 33.75 34.575 33.75 35.625C33.75 36.675 32.925 37.5 31.875 37.5C30.825 37.5 30 36.675 30 35.625C30 34.575 30.825 33.75 31.875 33.75ZM31.875 28.125C26.7563 28.125 22.3875 31.2375 20.625 35.625C22.3875 40.0125 26.7563 43.125 31.875 43.125C36.9938 43.125 41.3625 40.0125 43.125 35.625C41.3625 31.2375 36.9938 28.125 31.875 28.125ZM31.875 40.3125C30.6318 40.3125 29.4395 39.8186 28.5604 38.9396C27.6814 38.0605 27.1875 36.8682 27.1875 35.625C27.1875 34.3818 27.6814 33.1895 28.5604 32.3104C29.4395 31.4314 30.6318 30.9375 31.875 30.9375C33.1182 30.9375 34.3105 31.4314 35.1896 32.3104C36.0686 33.1895 36.5625 34.3818 36.5625 35.625C36.5625 36.8682 36.0686 38.0605 35.1896 38.9396C34.3105 39.8186 33.1182 40.3125 31.875 40.3125Z" fill="white"/>
</svg>
