<svg width="45" height="45" viewBox="0 0 45 45" fill="none" xmlns="http://www.w3.org/2000/svg">
<path d="M37.5 22.5V13.125H41.25V24.375H37.5M37.5 31.875H41.25V28.125H37.5M18.75 24.375C23.7563 24.375 33.75 26.8875 33.75 31.875V37.5H3.75V31.875C3.75 26.8875 13.7437 24.375 18.75 24.375ZM18.75 7.5C20.7391 7.5 22.6468 8.29018 24.0533 9.6967C25.4598 11.1032 26.25 13.0109 26.25 15C26.25 16.9891 25.4598 18.8968 24.0533 20.3033C22.6468 21.7098 20.7391 22.5 18.75 22.5C16.7609 22.5 14.8532 21.7098 13.4467 20.3033C12.0402 18.8968 11.25 16.9891 11.25 15C11.25 13.0109 12.0402 11.1032 13.4467 9.6967C14.8532 8.29018 16.7609 7.5 18.75 7.5ZM18.75 27.9375C13.1812 27.9375 7.3125 30.675 7.3125 31.875V33.9375H30.1875V31.875C30.1875 30.675 24.3188 27.9375 18.75 27.9375ZM18.75 11.0625C17.7057 11.0625 16.7042 11.4773 15.9658 12.2158C15.2273 12.9542 14.8125 13.9557 14.8125 15C14.8125 16.0443 15.2273 17.0458 15.9658 17.7842C16.7042 18.5227 17.7057 18.9375 18.75 18.9375C19.7943 18.9375 20.7958 18.5227 21.5342 17.7842C22.2727 17.0458 22.6875 16.0443 22.6875 15C22.6875 13.9557 22.2727 12.9542 21.5342 12.2158C20.7958 11.4773 19.7943 11.0625 18.75 11.0625Z" fill="#F8F8F8"/>
</svg>
