<svg width="19" height="19" viewBox="0 0 19 19" fill="none" xmlns="http://www.w3.org/2000/svg">
<path d="M11.5109 18.2084H5.54171C5.12178 18.2084 4.71905 18.0415 4.42212 17.7446C4.12519 17.4477 3.95837 17.0449 3.95837 16.625V2.37502C3.95837 1.49627 4.66296 0.791687 5.54171 0.791687H13.4584C13.8783 0.791687 14.281 0.958502 14.578 1.25543C14.8749 1.55237 15.0417 1.95509 15.0417 2.37502V10.2917C14.4875 10.2917 13.9571 10.3946 13.4584 10.5688V3.95835H5.54171V15.0417H10.2917C10.2917 16.2609 10.7509 17.3692 11.5109 18.2084ZM14.0521 17.5434L11.875 15.1684L12.7934 14.25L14.0521 15.5088L16.8942 12.6667L17.8125 13.7829L14.0521 17.5434Z" fill="#192435"/>
</svg>
