<svg width="45" height="45" viewBox="0 0 45 45" fill="none" xmlns="http://www.w3.org/2000/svg">
<path d="M18.75 7.5C16.7609 7.5 14.8532 8.29018 13.4467 9.6967C12.0402 11.1032 11.25 13.0109 11.25 15C11.25 16.9891 12.0402 18.8968 13.4467 20.3033C14.8532 21.7098 16.7609 22.5 18.75 22.5C20.7391 22.5 22.6468 21.7098 24.0533 20.3033C25.4598 18.8968 26.25 16.9891 26.25 15C26.25 13.0109 25.4598 11.1032 24.0533 9.6967C22.6468 8.29018 20.7391 7.5 18.75 7.5ZM18.75 11.25C19.7446 11.25 20.6984 11.6451 21.4016 12.3483C22.1049 13.0516 22.5 14.0054 22.5 15C22.5 15.9946 22.1049 16.9484 21.4016 17.6516C20.6984 18.3549 19.7446 18.75 18.75 18.75C17.7554 18.75 16.8016 18.3549 16.0984 17.6516C15.3951 16.9484 15 15.9946 15 15C15 14.0054 15.3951 13.0516 16.0984 12.3483C16.8016 11.6451 17.7554 11.25 18.75 11.25ZM31.875 22.5C31.575 22.5 31.425 22.65 31.425 22.95L30.9375 25.3125C30.525 25.65 29.925 25.95 29.475 26.25L27.075 25.3125C26.925 25.3125 26.625 25.3125 26.475 25.5L24.675 28.8C24.525 28.95 24.525 29.25 24.825 29.4L26.775 30.9375V32.8125L24.825 34.35C24.675 34.5 24.525 34.8 24.675 34.95L26.475 38.25C26.625 38.4375 26.925 38.4375 27.075 38.4375L29.475 37.5C29.925 37.8 30.525 38.1 30.9375 38.4375L31.425 40.8C31.425 41.1 31.575 41.25 31.875 41.25H35.625C35.775 41.25 36.075 41.1 36.075 40.8L36.375 38.4375C36.975 38.1 37.575 37.8 38.025 37.5L40.3125 38.4375C40.575 38.4375 40.875 38.4375 40.875 38.25L42.825 34.95C42.975 34.8 42.825 34.5 42.675 34.35L40.725 32.8125V30.9375L42.675 29.4C42.825 29.25 42.975 28.95 42.825 28.8L40.875 25.5C40.875 25.3125 40.575 25.3125 40.3125 25.3125L38.025 26.25C37.575 25.95 36.975 25.65 36.375 25.3125L36.075 22.95C36.075 22.65 35.775 22.5 35.625 22.5H31.875ZM18.75 24.375C13.7437 24.375 3.75 26.8687 3.75 31.875V37.5H21.8813C21.3563 36.3938 20.9813 35.1938 20.7938 33.9375H7.3125V31.875C7.3125 30.675 13.1812 27.9375 18.75 27.9375C19.5563 27.9375 20.3813 28.0125 21.1875 28.125C21.5625 26.925 22.0687 25.8 22.725 24.7688C21.2625 24.525 19.875 24.375 18.75 24.375ZM33.825 29.0625C35.325 29.0625 36.5625 30.3 36.5625 31.95C36.5625 33.45 35.325 34.6875 33.825 34.6875C32.175 34.6875 30.9375 33.45 30.9375 31.95C30.9375 30.3 32.175 29.0625 33.825 29.0625Z" fill="#F8F8F8"/>
</svg>
