<svg width="34" height="45" viewBox="0 0 34 45" fill="none" xmlns="http://www.w3.org/2000/svg">
<path d="M14 0H21.0988C33.1301 0 38.1819 15.3577 28.5 22.5C38.1819 29.6423 33.1301 45 21.0988 45H14L26 22.5L14 0Z" fill="#D9D9D9"/>
<path d="M12 0H19.0988C31.1301 0 36.1819 15.3577 26.5 22.5C36.1819 29.6423 31.1301 45 19.0988 45H12L24 22.5L12 0Z" fill="white"/>
<path d="M10 0H17.0988C29.1301 0 34.1819 15.3577 24.5 22.5C34.1819 29.6423 29.1301 45 17.0988 45H10L22 22.5L10 0Z" fill="#D9D9D9"/>
<path d="M8 0H15.0988C27.1301 0 32.1819 15.3577 22.5 22.5C32.1819 29.6423 27.1301 45 15.0988 45H8L20 22.5L8 0Z" fill="white"/>
<path d="M6 0H13.0988C25.1301 0 30.1819 15.3577 20.5 22.5C30.1819 29.6423 25.1301 45 13.0988 45H6L18 22.5L6 0Z" fill="#D9D9D9"/>
<path d="M4 0H11.0988C23.1301 0 28.1819 15.3577 18.5 22.5C28.1819 29.6423 23.1301 45 11.0988 45H4L16 22.5L4 0Z" fill="white"/>
<path d="M2 0H9.0988C21.1301 0 26.1819 15.3577 16.5 22.5C26.1819 29.6423 21.1301 45 9.0988 45H2L14 22.5L2 0Z" fill="#D9D9D9"/>
<path d="M0 0H7.0988C19.1301 0 24.1819 15.3577 14.5 22.5C24.1819 29.6423 19.1301 45 7.0988 45H0L12 22.5L0 0Z" fill="white"/>
</svg>
