<svg width="27" height="432" viewBox="0 0 27 432" fill="none" xmlns="http://www.w3.org/2000/svg">
<path d="M26.0909 14.8807L22.4144 14.8807L22.4144 5.3445L5 5.3445L5 0.885341L26.0909 0.885342L26.0909 14.8807ZM5 16.5928L8.58381 16.5928L8.6353 17.1901C8.69709 17.9591 8.98887 18.5804 9.51065 19.0541C10.0393 19.5278 10.8803 19.8814 12.0337 20.1148C13.194 20.3551 14.7525 20.5096 16.7092 20.5783L26.0909 20.9284L26.0909 35.243L5 35.243L5 30.9074L22.5174 30.9074L22.5174 25.0683L15.1747 24.7388C12.813 24.6289 10.8838 24.3474 9.38707 23.8943C7.89039 23.448 6.78504 22.734 6.07102 21.7523C5.35701 20.7774 5 19.442 5 17.7462L5 16.5928ZM15.5455 58.3009C13.2455 58.3009 11.2888 57.865 9.67542 56.993C8.06202 56.128 6.82966 54.9471 5.97834 53.4504C5.13387 51.9606 4.71164 50.2854 4.71164 48.4248C4.71164 46.5506 5.13731 44.8685 5.98863 43.3787C6.83996 41.8889 8.07232 40.7114 9.68572 39.8464C11.2991 38.9813 13.2524 38.5488 15.5455 38.5488C17.8454 38.5488 19.8021 38.9813 21.4155 39.8464C23.0289 40.7114 24.2578 41.8889 25.1023 43.3787C25.9536 44.8685 26.3793 46.5506 26.3793 48.4248C26.3793 50.2854 25.9536 51.9606 25.1023 53.4504C24.2578 54.9471 23.0289 56.128 21.4155 56.993C19.8021 57.865 17.8454 58.3009 15.5455 58.3009ZM15.5455 53.78C17.0353 53.78 18.2917 53.5568 19.3146 53.1106C20.3376 52.6712 21.1134 52.0498 21.642 51.2466C22.1707 50.4433 22.435 49.5027 22.435 48.4248C22.435 47.347 22.1707 46.4064 21.642 45.6031C21.1134 44.7998 20.3376 44.1751 19.3146 43.7288C18.2917 43.2894 17.0353 43.0697 15.5455 43.0697C14.0556 43.0697 12.7992 43.2894 11.7763 43.7288C10.7533 44.1751 9.97751 44.7998 9.44886 45.6031C8.92022 46.4064 8.65589 47.347 8.65589 48.4248C8.65589 49.5027 8.92021 50.4433 9.44886 51.2466C9.97751 52.0498 10.7533 52.6712 11.7763 53.1106C12.7992 53.5568 14.0556 53.78 15.5455 53.78ZM5 61.6041L26.0909 61.6041L26.0909 75.5995L22.4144 75.5995L22.4144 66.0633L18.2951 66.0633L18.2951 69.4926C18.2951 71.1609 18.0239 72.5992 17.4815 73.8076C16.946 75.0228 16.1874 75.9599 15.2056 76.619C14.2238 77.2781 13.067 77.6076 11.7351 77.6076C10.41 77.6076 9.23946 77.2781 8.22336 76.619C7.21413 75.9599 6.42459 75.0228 5.85475 73.8076C5.28492 72.5992 5 71.1609 5 69.4926L5 61.6041ZM8.5838 66.0633L8.5838 69.4926C8.5838 70.289 8.72798 70.9618 9.01633 71.5111C9.31155 72.0603 9.69945 72.4757 10.18 72.7571C10.6675 73.0455 11.1996 73.1897 11.7763 73.1897C12.6139 73.1897 13.321 72.8704 13.8977 72.2319C14.4813 71.6003 14.7731 70.6872 14.7731 69.4926L14.7731 66.0633L8.5838 66.0633ZM5 84.129L5 79.3506L26.0909 86.6315L26.0909 92.378L4.99999 99.6486L5 94.8702L21.2713 89.5871L21.2713 89.4224L5 84.129ZM13.2901 83.8304L13.2901 95.1173L9.8093 95.1173L9.8093 83.8304L13.2901 83.8304ZM4.99999 101.044L8.5838 101.044L8.63529 101.641C8.69708 102.41 8.98887 103.032 9.51065 103.505C10.0393 103.979 10.8803 104.333 12.0337 104.566C13.194 104.806 14.7525 104.961 16.7092 105.029L26.0909 105.38L26.0909 119.694L4.99999 119.694L4.99999 115.359L22.5174 115.359L22.5174 109.519L15.1747 109.19C12.813 109.08 10.8838 108.799 9.38707 108.345C7.89038 107.899 6.78503 107.185 6.07102 106.203C5.357 105.229 4.99999 103.893 4.99999 102.197L4.99999 101.044ZM18.2951 126.306L18.2951 131.331C18.2951 133.006 18.0239 134.448 17.4815 135.657C16.946 136.872 16.1874 137.809 15.2056 138.468C14.2238 139.127 13.067 139.453 11.7351 139.446C10.41 139.453 9.23946 139.127 8.22336 138.468C7.21413 137.809 6.42459 136.872 5.85475 135.657C5.28491 134.448 4.99999 133.006 4.99999 131.331L4.99999 123.453L26.0909 123.453L26.0909 127.902L8.5838 127.902L8.5838 131.331C8.5838 132.135 8.72798 132.811 9.01633 133.36C9.31155 133.909 9.69945 134.325 10.18 134.606C10.6675 134.894 11.1996 135.035 11.7763 135.028C12.6139 135.035 13.321 134.719 13.8977 134.081C14.4813 133.449 14.7731 132.533 14.7731 131.331L14.7731 126.306L18.2951 126.306ZM4.99999 142.997L26.0909 142.997L26.0909 147.456L17.3888 147.456L17.3888 156.508L26.0909 156.508L26.0909 160.957L4.99999 160.957L4.99999 156.508L13.7124 156.508L13.7124 147.456L4.99999 147.456L4.99999 142.997ZM4.99999 168.269L4.99999 163.49L26.0909 170.771L26.0909 176.518L4.99999 183.788L4.99999 179.01L21.2713 173.727L21.2713 173.562L4.99999 168.269ZM13.2901 167.97L13.2901 179.257L9.8093 179.257L9.8093 167.97L13.2901 167.97ZM4.99999 202.516L4.99999 198.067L22.4453 198.067L22.4453 195.06C22.4453 194.202 22.3183 193.487 22.0643 192.918C21.8171 192.355 21.4532 191.932 20.9726 191.651C20.4921 191.369 19.9016 191.229 19.2013 191.229C18.5079 191.229 17.9278 191.369 17.4609 191.651C16.9941 191.932 16.6439 192.355 16.4105 192.918C16.1771 193.481 16.0604 194.188 16.0604 195.039L16.0604 199.879L12.4766 199.879L12.4766 194.318C12.4766 192.705 12.7443 191.325 13.2798 190.178C13.8153 189.032 14.5843 188.156 15.5866 187.552C16.5959 186.948 17.8008 186.646 19.2013 186.646C20.595 186.646 21.8068 186.941 22.8366 187.532C23.8733 188.129 24.6732 188.991 25.2361 190.117C25.806 191.249 26.0909 192.612 26.0909 194.205L26.0909 202.516L4.99999 202.516ZM14.598 191.136L14.598 195.945L4.99999 190.817L4.99999 185.894L14.598 191.136ZM26.0909 212.891L26.0909 217.34L12.8267 217.34L12.8267 217.515L26.0909 226.629L26.0909 230.532L4.99999 230.532L4.99999 226.073L18.2745 226.073L18.2745 225.919L4.99999 216.753L4.99999 212.891L26.0909 212.891ZM4.99999 234.216L26.0909 234.216L26.0909 238.676L17.3888 238.676L17.3888 247.728L26.0909 247.728L26.0909 252.177L4.99999 252.177L4.99999 247.728L13.7123 247.728L13.7123 238.676L4.99999 238.676L4.99999 234.216ZM23.8253 264.195L23.8253 268.911C23.8253 270.6 23.4683 272.097 22.7542 273.401C22.0402 274.713 21.0344 275.739 19.7368 276.481C18.4461 277.229 16.9288 277.603 15.185 277.603C13.4961 277.603 12.0234 277.229 10.767 276.481C9.51064 275.739 8.5323 274.713 7.83202 273.401C7.1386 272.097 6.79189 270.6 6.79189 268.911L6.79189 264.195C6.79189 262.499 7.13517 260.995 7.82172 259.684C8.51514 258.373 9.49005 257.343 10.7464 256.595C12.0028 255.853 13.4858 255.482 15.1953 255.482C16.9391 255.482 18.4564 255.857 19.7471 256.605C21.0447 257.36 22.0471 258.393 22.7543 259.705C23.4683 261.016 23.8253 262.513 23.8253 264.195ZM20.0973 264.195C20.0973 263.288 19.9154 262.489 19.5515 261.795C19.1945 261.109 18.6521 260.573 17.9243 260.189C17.1966 259.804 16.2869 259.612 15.1953 259.612C14.1517 259.612 13.2833 259.808 12.5898 260.199C11.8964 260.597 11.3781 261.14 11.0348 261.826C10.6915 262.513 10.5199 263.302 10.5199 264.195L10.5199 268.942C10.5199 269.842 10.6949 270.628 11.0451 271.301C11.3952 271.98 11.917 272.505 12.6104 272.876C13.3038 273.254 14.162 273.443 15.185 273.443C16.2766 273.443 17.1863 273.254 17.914 272.876C18.6418 272.505 19.1876 271.98 19.5515 271.301C19.9154 270.628 20.0973 269.842 20.0973 268.942L20.0973 264.195ZM26.4616 268.664L4.13493 268.664L4.13493 264.432L26.4616 264.432L26.4616 268.664ZM15.5454 300.27C13.2455 300.27 11.2888 299.834 9.67541 298.962C8.06201 298.097 6.82965 296.916 5.97832 295.419C5.13386 293.929 4.71163 292.254 4.71163 290.394C4.71163 288.519 5.1373 286.837 5.98862 285.347C6.83995 283.858 8.07231 282.68 9.68571 281.815C11.2991 280.95 13.2524 280.518 15.5454 280.518C17.8454 280.518 19.8021 280.95 21.4155 281.815C23.0289 282.68 24.2578 283.858 25.1023 285.347C25.9536 286.837 26.3792 288.519 26.3792 290.394C26.3792 292.254 25.9536 293.929 25.1023 295.419C24.2578 296.916 23.0289 298.097 21.4155 298.962C19.8021 299.834 17.8454 300.27 15.5454 300.27ZM15.5454 295.749C17.0353 295.749 18.2917 295.526 19.3146 295.079C20.3376 294.64 21.1134 294.019 21.642 293.215C22.1707 292.412 22.435 291.471 22.435 290.394C22.435 289.316 22.1707 288.375 21.642 287.572C21.1134 286.769 20.3376 286.144 19.3146 285.698C18.2917 285.258 17.0353 285.038 15.5454 285.038C14.0556 285.038 12.7992 285.258 11.7763 285.698C10.7533 286.144 9.9775 286.769 9.44885 287.572C8.9202 288.375 8.65588 289.316 8.65588 290.394C8.65588 291.471 8.9202 292.412 9.44885 293.215C9.9775 294.019 10.7533 294.64 11.7763 295.079C12.7992 295.526 14.0556 295.749 15.5454 295.749ZM4.99999 303.573L26.0909 303.573L26.0909 311.894C26.0909 313.494 25.7854 314.856 25.1743 315.982C24.5702 317.108 23.7292 317.966 22.6513 318.557C21.5802 319.154 20.3444 319.453 18.9439 319.453C17.5433 319.453 16.3075 319.151 15.2365 318.547C14.1655 317.942 13.3313 317.067 12.734 315.92C12.1367 314.781 11.8381 313.401 11.8381 311.781L11.8381 306.477L15.4116 306.477L15.4116 311.06C15.4116 311.918 15.5592 312.625 15.8544 313.181C16.1565 313.744 16.5718 314.163 17.1005 314.438C17.636 314.719 18.2505 314.86 18.9439 314.86C19.6442 314.86 20.2552 314.719 20.777 314.438C21.3056 314.163 21.7141 313.744 22.0025 313.181C22.2977 312.618 22.4453 311.904 22.4453 311.039L22.4453 308.032L4.99999 308.032L4.99999 303.573ZM26.0909 322.349L26.0909 327.848L11.9204 333.657L11.9204 333.904L26.0909 339.712L26.0909 345.211L4.99998 345.211L4.99998 340.886L18.7276 340.886L18.7276 340.711L5.10297 335.253L5.10297 332.308L18.7791 326.85L18.7791 326.674L4.99999 326.674L4.99999 322.349L26.0909 322.349ZM4.99998 352.521L4.99998 347.742L26.0909 355.023L26.0909 360.77L4.99998 368.04L4.99998 363.262L21.2713 357.979L21.2713 357.814L4.99998 352.521ZM13.2901 352.222L13.2901 363.509L9.80929 363.509L9.80929 352.222L13.2901 352.222ZM8.56319 390.897L0.0156072 390.64L0.0156074 386.397L4.99998 386.397L4.99998 384.914L8.56319 384.914L8.56319 390.897ZM4.99998 370.579L26.0909 370.579L26.0909 374.863L8.58379 374.863L8.58379 383.637L26.0909 383.637L26.0909 387.973L4.99998 387.973L4.99998 370.579ZM26.0909 393.603L26.0909 398.052L12.8267 398.052L12.8267 398.227L26.0909 407.341L26.0909 411.244L4.99998 411.244L4.99998 406.785L18.2745 406.785L18.2745 406.63L4.99998 397.465L4.99998 393.603L26.0909 393.603ZM4.99998 431.117L4.99998 426.668L22.4453 426.668L22.4453 423.661C22.4453 422.803 22.3183 422.089 22.0643 421.519C21.8171 420.956 21.4532 420.534 20.9726 420.253C20.4921 419.971 19.9016 419.83 19.2013 419.83C18.5079 419.83 17.9278 419.971 17.4609 420.253C16.9941 420.534 16.6439 420.956 16.4105 421.519C16.1771 422.082 16.0604 422.789 16.0604 423.641L16.0604 428.481L12.4765 428.481L12.4765 422.92C12.4765 421.306 12.7443 419.926 13.2798 418.78C13.8153 417.633 14.5843 416.758 15.5866 416.154C16.5959 415.55 17.8008 415.248 19.2013 415.248C20.595 415.248 21.8068 415.543 22.8366 416.133C23.8733 416.731 24.6732 417.592 25.2361 418.718C25.806 419.851 26.0909 421.214 26.0909 422.807L26.0909 431.117L4.99998 431.117ZM14.598 419.738L14.598 424.547L4.99998 419.418L4.99998 414.496L14.598 419.738Z" fill="#192435"/>
</svg>
