<svg width="45" height="45" viewBox="0 0 45 45" fill="none" xmlns="http://www.w3.org/2000/svg">
<path d="M20.625 37.5V41.25H5.625C3.5625 41.25 1.875 39.5625 1.875 37.5V7.5C1.875 5.4375 3.5625 3.75 5.625 3.75H39.375C41.4375 3.75 43.125 5.4375 43.125 7.5V22.6875L42.75 22.3125C41.8125 21.375 40.6875 20.8125 39.375 20.8125V11.25H5.625V37.5H20.625ZM40.125 24.9375L42.5625 27.375C42.9375 27.75 42.9375 28.5 42.5625 28.875L40.6875 30.75L36.75 26.8125L38.625 24.9375C38.8125 24.75 39 24.5625 39.375 24.5625C39.75 24.5625 39.9375 24.75 40.125 24.9375ZM39.5625 31.6875L28.3125 43.125H24.375V39.1875L35.8125 27.75L39.5625 31.6875Z" fill="#F8F8F8"/>
</svg>
