<svg width="29" height="492" viewBox="0 0 29 492" fill="none" xmlns="http://www.w3.org/2000/svg">
<mask id="path-1-outside-1_219_165" maskUnits="userSpaceOnUse" x="-1" y="-1" width="31" height="494" fill="black">
<rect fill="white" x="-1" y="-1" width="31" height="494"/>
<path d="M1.18182 473.378L23 473.378L23 477.938L4.93182 477.938L4.93182 486.759L23 486.759L23 491.319L1.18182 491.319L1.18182 473.378ZM23 468.987L1.18182 468.987L1.18182 454.285L4.98509 454.285L4.98509 464.374L10.1839 464.374L10.184 455.041L13.9872 455.041L13.9872 464.374L19.1967 464.374L19.1967 454.242L23 454.242L23 468.987ZM23 450.617L1.18182 450.617L1.18182 442.009C1.18182 440.355 1.49787 438.945 2.12997 437.78C2.75497 436.615 3.625 435.727 4.74006 435.117C5.84801 434.499 7.12642 434.19 8.57529 434.19C10.0242 434.19 11.3026 434.502 12.4105 435.127C13.5185 435.752 14.3814 436.658 14.9993 437.844C15.6172 439.023 15.9261 440.45 15.9261 442.127L15.9261 447.613L12.2294 447.613L12.2294 442.872C12.2294 441.985 12.0767 441.253 11.7713 440.678C11.4588 440.095 11.0291 439.662 10.4822 439.378C9.92827 439.087 9.29262 438.941 8.57529 438.941C7.85085 438.941 7.21875 439.087 6.67898 439.378C6.1321 439.662 5.70952 440.095 5.41122 440.678C5.10583 441.26 4.95313 441.999 4.95313 442.894L4.95313 446.004L23 446.004L23 450.617ZM8.82032 411.943L8.82032 416.609C8.21662 416.694 7.6804 416.868 7.21165 417.131C6.7358 417.394 6.33097 417.731 5.99716 418.143C5.66335 418.555 5.40767 419.031 5.23012 419.571C5.05256 420.103 4.96378 420.682 4.96378 421.307C4.96378 422.436 5.24432 423.42 5.8054 424.258C6.35938 425.096 7.16904 425.746 8.23438 426.208C9.29262 426.669 10.5781 426.9 12.0909 426.9C13.6463 426.9 14.9531 426.669 16.0114 426.208C17.0696 425.739 17.8686 425.086 18.4084 424.248C18.9482 423.409 19.218 422.44 19.218 421.339C19.218 420.721 19.1364 420.15 18.973 419.624C18.8097 419.091 18.5717 418.619 18.2592 418.207C17.9396 417.795 17.5526 417.454 17.098 417.184C16.6435 416.907 16.125 416.716 15.5426 416.609L15.5639 411.943C16.5653 412.064 17.5313 412.365 18.4617 412.848C19.3849 413.324 20.2124 413.967 20.9439 414.777C21.6683 415.579 22.2436 416.538 22.6697 417.653C23.0888 418.761 23.2983 420.015 23.2983 421.414C23.2983 423.36 22.858 425.1 21.9773 426.634C21.0966 428.161 19.8217 429.368 18.1527 430.256C16.4837 431.137 14.4631 431.577 12.0909 431.577C9.71165 431.577 7.6875 431.13 6.01847 430.235C4.34943 429.34 3.07813 428.125 2.20455 426.591C1.32387 425.057 0.883525 423.331 0.883525 421.414C0.883525 420.15 1.06108 418.978 1.4162 417.898C1.77131 416.811 2.28978 415.849 2.97159 415.011C3.64631 414.173 4.47372 413.491 5.45384 412.966C6.43395 412.433 7.55611 412.092 8.82032 411.943ZM12.0909 388.585C14.4702 388.585 16.4943 389.036 18.1634 389.938C19.8324 390.833 21.1072 392.055 21.9879 393.603C22.8615 395.144 23.2983 396.877 23.2983 398.802C23.2983 400.741 22.858 402.481 21.9773 404.022C21.0966 405.563 19.8217 406.781 18.1527 407.676C16.4837 408.571 14.4631 409.018 12.0909 409.018C9.71165 409.018 7.6875 408.571 6.01847 407.676C4.34944 406.781 3.07813 405.563 2.20455 404.022C1.32387 402.481 0.883526 400.741 0.883526 398.802C0.883526 396.877 1.32387 395.144 2.20455 393.603C3.07813 392.055 4.34944 390.833 6.01847 389.938C7.6875 389.036 9.71165 388.585 12.0909 388.585ZM12.0909 393.262C10.5497 393.262 9.25 393.493 8.19177 393.955C7.13353 394.409 6.33097 395.052 5.7841 395.883C5.23722 396.714 4.96378 397.687 4.96378 398.802C4.96378 399.917 5.23722 400.89 5.7841 401.721C6.33097 402.552 7.13353 403.198 8.19176 403.66C9.25 404.114 10.5497 404.342 12.0909 404.342C13.6321 404.342 14.9318 404.114 15.9901 403.66C17.0483 403.198 17.8509 402.552 18.3977 401.721C18.9446 400.89 19.218 399.917 19.218 398.802C19.218 397.687 18.9446 396.714 18.3977 395.883C17.8509 395.052 17.0483 394.409 15.9901 393.955C14.9318 393.493 13.6321 393.262 12.0909 393.262ZM23 385.168L1.18182 385.168L1.18182 380.555L10.184 380.555L10.184 371.191L1.18182 371.191L1.18182 366.589L23 366.589L23 371.191L13.9872 371.191L13.9872 380.555L23 380.555L23 385.168ZM23 359.025L23 363.968L1.18182 356.436L1.18182 350.491L23 342.97L23 347.913L6.16762 353.378L6.16762 353.549L23 359.025ZM14.424 359.334L14.424 347.657L18.0249 347.657L18.0249 359.334L14.424 359.334ZM23 341.526L19.2926 341.526L19.2394 340.909C19.1754 340.113 18.8736 339.47 18.3338 338.98C17.7869 338.49 16.9169 338.124 15.7237 337.883C14.5234 337.634 12.9112 337.475 10.8871 337.404L1.18182 337.041L1.18183 322.233L23 322.233L23 326.718L4.87856 326.718L4.87856 332.759L12.4744 333.1C14.9176 333.213 16.9134 333.504 18.4617 333.973C20.01 334.435 21.1534 335.173 21.8921 336.189C22.6307 337.198 23 338.579 23 340.333L23 341.526ZM9.24646 315.394L9.24646 310.195C9.24646 308.462 9.527 306.97 10.0881 305.72C10.6421 304.463 11.4269 303.494 12.4425 302.812C13.4581 302.13 14.6548 301.793 16.0327 301.8C17.4034 301.793 18.6144 302.13 19.6655 302.812C20.7095 303.494 21.5263 304.463 22.1158 305.72C22.7053 306.97 23 308.462 23 310.195L23 318.345L1.18183 318.345L1.18183 313.742L19.2926 313.742L19.2926 310.195C19.2926 309.364 19.1435 308.664 18.8452 308.096C18.5398 307.528 18.1385 307.098 17.6413 306.807C17.1371 306.509 16.5867 306.363 15.9901 306.37C15.1236 306.363 14.3921 306.69 13.7955 307.35C13.1918 308.004 12.8899 308.952 12.8899 310.195L12.8899 315.394L9.24646 315.394ZM23 298.127L1.18183 298.127L1.18183 293.514L10.184 293.514L10.184 284.15L1.18183 284.15L1.18183 279.548L23 279.548L23 284.15L13.9872 284.15L13.9872 293.514L23 293.514L23 298.127ZM23 271.984L23 276.927L1.18183 269.395L1.18183 263.45L23 255.929L23 260.872L6.16762 266.337L6.16762 266.508L23 271.984ZM14.424 272.293L14.424 260.616L18.0249 260.616L18.0249 272.293L14.424 272.293ZM23 236.556L23 241.158L4.95314 241.158L4.95314 244.269C4.95314 245.157 5.08453 245.895 5.34731 246.485C5.60299 247.067 5.97941 247.504 6.47657 247.795C6.97373 248.086 7.58453 248.232 8.30896 248.232C9.02629 248.232 9.62643 248.086 10.1094 247.795C10.5923 247.504 10.9546 247.067 11.196 246.485C11.4375 245.902 11.5582 245.171 11.5582 244.29L11.5582 239.283L15.2656 239.283L15.2656 245.036C15.2656 246.705 14.9886 248.132 14.4347 249.319C13.8807 250.505 13.0852 251.41 12.0483 252.035C11.0043 252.66 9.75782 252.973 8.30896 252.973C6.8672 252.973 5.61365 252.667 4.54831 252.056C3.47586 251.439 2.64845 250.547 2.06606 249.382C1.47657 248.211 1.18183 246.801 1.18183 245.153L1.18183 236.556L23 236.556ZM13.071 248.328L13.071 243.353L23 248.658L23 253.75L13.071 248.328ZM1.18183 225.822L1.18183 221.22L14.9034 221.22L14.9034 221.039L1.18183 211.611L1.18183 207.573L23 207.573L23 212.186L9.26777 212.186L9.26777 212.346L23 221.827L23 225.822L1.18183 225.822ZM23 203.762L1.18183 203.762L1.18183 199.149L10.184 199.149L10.184 189.785L1.18183 189.785L1.18183 185.182L23 185.182L23 189.785L13.9872 189.785L13.9872 199.149L23 199.149L23 203.762ZM3.52558 172.75L3.52558 167.871C3.52558 166.123 3.8949 164.575 4.63354 163.226C5.37217 161.869 6.41266 160.807 7.75499 160.04C9.09021 159.266 10.6598 158.879 12.4638 158.879C14.211 158.879 15.7344 159.266 17.0341 160.04C18.3338 160.807 19.3459 161.869 20.0703 163.226C20.7877 164.575 21.1463 166.123 21.1463 167.871L21.1463 172.75C21.1463 174.504 20.7912 176.059 20.081 177.416C19.3636 178.773 18.3551 179.838 17.0554 180.612C15.7557 181.379 14.2216 181.763 12.4531 181.763C10.6492 181.763 9.07956 181.376 7.74433 180.601C6.402 179.82 5.36507 178.751 4.63354 177.395C3.8949 176.038 3.52558 174.49 3.52558 172.75ZM7.38212 172.75C7.38212 173.687 7.57033 174.515 7.94675 175.232C8.31606 175.942 8.87714 176.496 9.62999 176.894C10.3828 177.292 11.3239 177.491 12.4531 177.491C13.5327 177.491 14.4311 177.288 15.1485 176.883C15.8658 176.471 16.402 175.91 16.7571 175.2C17.1122 174.49 17.2898 173.673 17.2898 172.75L17.2898 167.839C17.2898 166.908 17.1087 166.095 16.7465 165.399C16.3842 164.696 15.8445 164.153 15.1271 163.769C14.4098 163.378 13.522 163.183 12.4638 163.183C11.3345 163.183 10.3935 163.378 9.64064 163.769C8.8878 164.153 8.32317 164.696 7.94675 165.399C7.57033 166.095 7.38212 166.908 7.38212 167.839L7.38212 172.75ZM0.79831 168.126L23.8949 168.126L23.8949 172.505L0.79831 172.505L0.79831 168.126ZM12.0909 135.431C14.4702 135.431 16.4943 135.882 18.1634 136.784C19.8324 137.679 21.1073 138.9 21.9879 140.449C22.8615 141.99 23.2983 143.723 23.2983 145.648C23.2983 147.586 22.858 149.327 21.9773 150.868C21.0966 152.409 19.8217 153.627 18.1527 154.522C16.4837 155.417 14.4631 155.864 12.0909 155.864C9.71166 155.864 7.68751 155.417 6.01848 154.522C4.34945 153.627 3.07814 152.409 2.20456 150.868C1.32388 149.327 0.883537 147.586 0.883537 145.648C0.883537 143.723 1.32388 141.99 2.20456 140.449C3.07814 138.9 4.34945 137.679 6.01848 136.784C7.68752 135.882 9.71166 135.431 12.0909 135.431ZM12.0909 140.108C10.5497 140.108 9.25002 140.339 8.19178 140.8C7.13354 141.255 6.33098 141.898 5.78411 142.729C5.23723 143.559 4.96379 144.532 4.96379 145.648C4.96379 146.763 5.23723 147.736 5.78411 148.567C6.33098 149.398 7.13354 150.044 8.19178 150.506C9.25001 150.96 10.5497 151.187 12.0909 151.187C13.6321 151.187 14.9318 150.96 15.9901 150.506C17.0483 150.044 17.8509 149.398 18.3977 148.567C18.9446 147.736 19.2181 146.763 19.2181 145.648C19.2181 144.532 18.9446 143.559 18.3977 142.729C17.8509 141.898 17.0483 141.255 15.9901 140.8C14.9318 140.339 13.6321 140.108 12.0909 140.108ZM23 132.014L1.18183 132.014L1.18183 123.406C1.18183 121.751 1.49789 120.341 2.12999 119.176C2.75499 118.012 3.62502 117.124 4.74007 116.513C5.84803 115.895 7.12644 115.586 8.5753 115.586C10.0242 115.586 11.3026 115.899 12.4105 116.524C13.5185 117.149 14.3814 118.054 14.9993 119.24C15.6172 120.419 15.9262 121.847 15.9262 123.523L15.9262 129.01L12.2294 129.01L12.2294 124.269C12.2294 123.381 12.0767 122.65 11.7713 122.074C11.4588 121.492 11.0291 121.059 10.4823 120.775C9.92828 120.483 9.29263 120.338 8.5753 120.338C7.85087 120.338 7.21877 120.483 6.67899 120.775C6.13212 121.059 5.70953 121.492 5.41124 122.074C5.10584 122.657 4.95314 123.395 4.95314 124.29L4.95314 127.401L23 127.401L23 132.014ZM1.18183 112.59L1.18183 106.901L15.8409 100.893L15.8409 100.637L1.18184 94.6284L1.18184 88.9395L23 88.9395L23 93.4139L8.79902 93.4139L8.79902 93.595L22.8935 99.2413L22.8935 102.288L8.74576 107.934L8.74576 108.116L23 108.116L23 112.59L1.18183 112.59ZM23 81.3782L23 86.3214L1.18184 78.7894L1.18184 72.8448L23 65.3235L23 70.2667L6.16763 75.7319L6.16763 75.9023L23 81.3782ZM14.424 81.6871L14.424 70.011L18.0249 70.011L18.0249 81.6871L14.424 81.6871ZM19.3139 41.6783L28.1563 41.9446L28.1563 46.3338L23 46.3338L23 47.8679L19.3139 47.8679L19.3139 41.6783ZM23 62.6974L1.18184 62.6974L1.18184 58.2656L19.2926 58.2656L19.2926 49.1889L1.18184 49.1889L1.18184 44.7038L23 44.7038L23 62.6974ZM1.18184 38.8791L1.18184 34.2768L14.9034 34.2768L14.9034 34.0957L1.18184 24.6674L1.18184 20.6298L23 20.6298L23 25.2427L9.26778 25.2427L9.26778 25.4025L23 34.8841L23 38.8791L1.18184 38.8791ZM23 0.0713788L23 4.67365L4.95315 4.67365L4.95315 7.78445C4.95315 8.67223 5.08454 9.41087 5.34732 10.0004C5.603 10.5827 5.97942 11.0195 6.47658 11.3107C6.97374 11.6019 7.58454 11.7475 8.30897 11.7475C9.0263 11.7475 9.62644 11.6019 10.1094 11.3107C10.5924 11.0195 10.9546 10.5827 11.196 10.0004C11.4375 9.41797 11.5583 8.68644 11.5583 7.80575L11.5583 2.79865L15.2656 2.79865L15.2656 8.55149C15.2656 10.2205 14.9887 11.6481 14.4347 12.8342C13.8807 14.0202 13.0852 14.9258 12.0483 15.5508C11.0043 16.1758 9.75783 16.4883 8.30897 16.4883C6.86721 16.4883 5.61366 16.1829 4.54832 15.5721C3.47587 14.9542 2.64846 14.0629 2.06607 12.8981C1.47658 11.7262 1.18184 10.3164 1.18184 8.66868L1.18184 0.0713778L23 0.0713788ZM13.071 11.8434L13.071 6.86825L23 12.1737L23 17.266L13.071 11.8434Z"/>
</mask>
<path d="M1.18182 473.378L1.18182 472.378L0.181819 472.378L0.181818 473.378L1.18182 473.378ZM23 473.378L24 473.378L24 472.378L23 472.378L23 473.378ZM23 477.938L23 478.938L24 478.938L24 477.938L23 477.938ZM4.93182 477.938L4.93182 476.938L3.93182 476.938L3.93182 477.938L4.93182 477.938ZM4.93182 486.759L3.93182 486.759L3.93182 487.759L4.93182 487.759L4.93182 486.759ZM23 486.759L24 486.759L24 485.759L23 485.759L23 486.759ZM23 491.319L23 492.319L24 492.319L24 491.319L23 491.319ZM1.18182 491.319L0.181818 491.319L0.181818 492.319L1.18182 492.319L1.18182 491.319ZM1.18182 474.378L23 474.378L23 472.378L1.18182 472.378L1.18182 474.378ZM22 473.378L22 477.938L24 477.938L24 473.378L22 473.378ZM23 476.938L4.93182 476.938L4.93182 478.938L23 478.938L23 476.938ZM3.93182 477.938L3.93182 486.759L5.93182 486.759L5.93182 477.938L3.93182 477.938ZM4.93182 487.759L23 487.759L23 485.759L4.93182 485.759L4.93182 487.759ZM22 486.759L22 491.319L24 491.319L24 486.759L22 486.759ZM23 490.319L1.18182 490.319L1.18182 492.319L23 492.319L23 490.319ZM2.18182 491.319L2.18182 473.378L0.181818 473.378L0.181818 491.319L2.18182 491.319ZM23 468.987L23 469.987L24 469.987L24 468.987L23 468.987ZM1.18182 468.987L0.181819 468.987L0.181819 469.987L1.18182 469.987L1.18182 468.987ZM1.18182 454.285L1.18182 453.285L0.181819 453.285L0.181819 454.285L1.18182 454.285ZM4.98509 454.285L5.98509 454.285L5.98509 453.285L4.98509 453.285L4.98509 454.285ZM4.98509 464.374L3.98509 464.374L3.98509 465.374L4.98509 465.374L4.98509 464.374ZM10.1839 464.374L10.1839 465.374L11.1839 465.374L11.1839 464.374L10.1839 464.374ZM10.184 455.041L10.184 454.041L9.18395 454.041L9.18395 455.041L10.184 455.041ZM13.9872 455.041L14.9872 455.041L14.9872 454.041L13.9872 454.041L13.9872 455.041ZM13.9872 464.374L12.9872 464.374L12.9872 465.374L13.9872 465.374L13.9872 464.374ZM19.1967 464.374L19.1967 465.374L20.1967 465.374L20.1967 464.374L19.1967 464.374ZM19.1967 454.242L19.1967 453.242L18.1967 453.242L18.1967 454.242L19.1967 454.242ZM23 454.242L24 454.242L24 453.242L23 453.242L23 454.242ZM23 467.987L1.18182 467.987L1.18182 469.987L23 469.987L23 467.987ZM2.18182 468.987L2.18182 454.285L0.181819 454.285L0.181819 468.987L2.18182 468.987ZM1.18182 455.285L4.98509 455.285L4.98509 453.285L1.18182 453.285L1.18182 455.285ZM3.98509 454.285L3.98509 464.374L5.98509 464.374L5.98509 454.285L3.98509 454.285ZM4.98509 465.374L10.1839 465.374L10.1839 463.374L4.98509 463.374L4.98509 465.374ZM11.1839 464.374L11.184 455.041L9.18395 455.041L9.18395 464.374L11.1839 464.374ZM10.184 456.041L13.9872 456.041L13.9872 454.041L10.184 454.041L10.184 456.041ZM12.9872 455.041L12.9872 464.374L14.9872 464.374L14.9872 455.041L12.9872 455.041ZM13.9872 465.374L19.1967 465.374L19.1967 463.374L13.9872 463.374L13.9872 465.374ZM20.1967 464.374L20.1967 454.242L18.1967 454.242L18.1967 464.374L20.1967 464.374ZM19.1967 455.242L23 455.242L23 453.242L19.1967 453.242L19.1967 455.242ZM22 454.242L22 468.987L24 468.987L24 454.242L22 454.242ZM23 450.617L23 451.617L24 451.617L24 450.617L23 450.617ZM1.18182 450.617L0.181819 450.617L0.181819 451.617L1.18182 451.617L1.18182 450.617ZM2.12997 437.78L3.0089 438.257L3.01113 438.253L2.12997 437.78ZM4.74006 435.117L5.22049 435.994L5.22713 435.99L4.74006 435.117ZM14.9993 437.844L14.1124 438.306L14.1136 438.308L14.9993 437.844ZM15.9261 447.613L15.9261 448.613L16.9261 448.613L16.9261 447.613L15.9261 447.613ZM12.2294 447.613L11.2294 447.613L11.2294 448.613L12.2294 448.613L12.2294 447.613ZM11.7713 440.678L12.6546 440.209L12.6525 440.205L11.7713 440.678ZM10.4822 439.378L10.017 440.263L10.0213 440.265L10.4822 439.378ZM6.67898 439.378L7.13997 440.265L7.1469 440.262L7.15377 440.258L6.67898 439.378ZM5.41122 440.678L6.29688 441.142L6.30127 441.134L5.41122 440.678ZM4.95313 446.004L3.95313 446.004L3.95313 447.004L4.95313 447.004L4.95313 446.004ZM23 446.004L24 446.004L24 445.004L23 445.004L23 446.004ZM23 449.617L1.18182 449.617L1.18182 451.617L23 451.617L23 449.617ZM2.18182 450.617L2.18182 442.009L0.18182 442.009L0.181819 450.617L2.18182 450.617ZM2.18182 442.009C2.18182 440.48 2.47365 439.243 3.00889 438.257L1.25106 437.303C0.522096 438.646 0.18182 440.229 0.18182 442.009L2.18182 442.009ZM3.01113 438.253C3.54837 437.252 4.28232 436.508 5.22047 435.994L4.25964 434.24C2.96769 434.947 1.96158 435.979 1.24881 437.307L3.01113 438.253ZM5.22713 435.99C6.16612 435.466 7.27238 435.19 8.57529 435.19L8.57529 433.19C6.98047 433.19 5.52991 433.531 4.25299 434.243L5.22713 435.99ZM8.57529 435.19C9.87628 435.19 10.981 435.469 11.9192 435.998L12.9018 434.256C11.6241 433.536 10.172 433.19 8.57529 433.19L8.57529 435.19ZM11.9192 435.998C12.8496 436.523 13.5792 437.282 14.1124 438.306L15.8862 437.382C15.1836 436.033 14.1873 434.981 12.9018 434.256L11.9192 435.998ZM14.1136 438.308C14.6394 439.312 14.9261 440.571 14.9261 442.127L16.9261 442.127C16.9261 440.33 16.5949 438.734 15.885 437.38L14.1136 438.308ZM14.9261 442.127L14.9261 447.613L16.9261 447.613L16.9261 442.127L14.9261 442.127ZM15.9261 446.613L12.2294 446.613L12.2294 448.613L15.9261 448.613L15.9261 446.613ZM13.2294 447.613L13.2294 442.872L11.2294 442.872L11.2294 447.613L13.2294 447.613ZM13.2294 442.872C13.2294 441.878 13.0594 440.971 12.6546 440.209L10.8881 441.147C11.0941 441.535 11.2294 442.091 11.2294 442.872L13.2294 442.872ZM12.6525 440.205C12.2521 439.459 11.6818 438.874 10.9432 438.491L10.0213 440.265C10.3764 440.45 10.6655 440.732 10.8901 441.151L12.6525 440.205ZM10.9475 438.493C10.2303 438.116 9.43086 437.941 8.57529 437.941L8.57529 439.941C9.15438 439.941 9.62622 440.058 10.017 440.263L10.9475 438.493ZM8.57529 437.941C7.71514 437.941 6.91417 438.115 6.20419 438.498L7.15377 440.258C7.52333 440.059 7.98657 439.941 8.57529 439.941L8.57529 437.941ZM6.21799 438.491C5.47503 438.877 4.90799 439.467 4.52118 440.222L6.30127 441.134C6.51104 440.724 6.78918 440.448 7.13997 440.265L6.21799 438.491ZM4.5256 440.213C4.12292 440.981 3.95313 441.893 3.95313 442.894L5.95313 442.894C5.95313 442.105 6.08873 441.539 6.29684 441.142L4.5256 440.213ZM3.95313 442.894L3.95313 446.004L5.95313 446.004L5.95313 442.894L3.95313 442.894ZM4.95313 447.004L23 447.004L23 445.004L4.95313 445.004L4.95313 447.004ZM22 446.004L22 450.617L24 450.617L24 446.004L22 446.004ZM8.82032 411.943L9.82032 411.943L9.82032 410.818L8.70315 410.95L8.82032 411.943ZM8.82032 416.609L8.96011 417.599L9.82032 417.478L9.82032 416.609L8.82032 416.609ZM7.21165 417.131L7.69508 418.006L7.70066 418.003L7.21165 417.131ZM5.99716 418.143L6.77409 418.773L6.7741 418.773L5.99716 418.143ZM5.23012 419.571L6.17881 419.887L6.18004 419.883L5.23012 419.571ZM5.8054 424.258L6.63963 423.707L6.63637 423.702L5.8054 424.258ZM8.23438 426.208L8.63423 425.291L8.63199 425.29L8.23438 426.208ZM16.0114 426.208L16.4112 427.124L16.4164 427.122L16.0114 426.208ZM18.4084 424.248L19.2491 424.789L18.4084 424.248ZM18.973 419.624L18.017 419.917L18.0181 419.921L18.973 419.624ZM18.2592 418.207L19.056 417.603L19.0493 417.594L18.2592 418.207ZM17.098 417.184L16.5776 418.038L16.5875 418.044L17.098 417.184ZM15.5426 416.609L14.5426 416.604L14.5388 417.442L15.3627 417.593L15.5426 416.609ZM15.5639 411.943L15.6836 410.95L14.5691 410.816L14.5639 411.938L15.5639 411.943ZM18.4617 412.848L18.0009 413.736L18.0035 413.737L18.4617 412.848ZM20.9439 414.777L21.6862 414.107L21.6859 414.106L20.9439 414.777ZM22.6697 417.653L23.6051 417.299L23.6039 417.296L22.6697 417.653ZM21.9773 426.634L22.8435 427.133L22.8445 427.132L21.9773 426.634ZM18.1527 430.256L18.6194 431.14L18.6223 431.139L18.1527 430.256ZM6.01847 430.235L6.491 429.353L6.491 429.353L6.01847 430.235ZM2.20455 426.591L3.07354 426.096L3.0718 426.093L2.20455 426.591ZM1.4162 417.898L2.36612 418.211L2.36673 418.209L1.4162 417.898ZM2.97159 415.011L3.74732 415.642L3.75053 415.638L2.97159 415.011ZM5.45384 412.966L5.92642 413.847L5.93135 413.844L5.45384 412.966ZM7.82032 411.943L7.82032 416.609L9.82032 416.609L9.82032 411.943L7.82032 411.943ZM8.68053 415.619C7.9705 415.719 7.31303 415.928 6.72265 416.259L7.70066 418.003C8.04777 417.809 8.46274 417.669 8.96011 417.599L8.68053 415.619ZM6.72823 416.256C6.14253 416.579 5.6372 416.999 5.22023 417.514L6.7741 418.773C7.02474 418.463 7.32906 418.209 7.69507 418.006L6.72823 416.256ZM5.22023 417.514C4.80465 418.026 4.49294 418.611 4.28019 419.258L6.18004 419.883C6.3224 419.45 6.52205 419.084 6.77409 418.773L5.22023 417.514ZM4.28143 419.254C4.06628 419.9 3.96378 420.587 3.96378 421.307L5.96378 421.307C5.96378 420.778 6.03884 420.307 6.1788 419.887L4.28143 419.254ZM3.96378 421.307C3.96378 422.61 4.29023 423.793 4.97443 424.814L6.63637 423.702C6.19841 423.048 5.96378 422.263 5.96378 421.307L3.96378 421.307ZM4.97118 424.81C5.64798 425.833 6.62185 426.599 7.83677 427.125L8.63199 425.29C7.71622 424.893 7.07077 424.359 6.63962 423.707L4.97118 424.81ZM7.83453 427.124C9.05151 427.655 10.4812 427.9 12.0909 427.9L12.0909 425.9C10.675 425.9 9.53372 425.684 8.63423 425.291L7.83453 427.124ZM12.0909 427.9C13.7388 427.9 15.1912 427.657 16.4112 427.124L15.6115 425.291C14.7151 425.682 13.5538 425.9 12.0909 425.9L12.0909 427.9ZM16.4164 427.122C17.6237 426.587 18.5874 425.816 19.2491 424.789L17.5677 423.706C17.1498 424.355 16.5155 424.891 15.6064 425.293L16.4164 427.122ZM19.2491 424.789C19.9036 423.773 20.218 422.611 20.218 421.339L18.218 421.339C18.218 422.269 17.9928 423.046 17.5677 423.706L19.2491 424.789ZM20.218 421.339C20.218 420.633 20.1246 419.96 19.928 419.327L18.0181 419.921C18.1481 420.339 18.218 420.81 18.218 421.339L20.218 421.339ZM19.9291 419.331C19.734 418.695 19.4447 418.115 19.0559 417.603L17.4625 418.811C17.6987 419.123 17.8854 419.488 18.017 419.917L19.9291 419.331ZM19.0493 417.594C18.6518 417.082 18.1694 416.657 17.6086 416.324L16.5875 418.044C16.9357 418.251 17.2275 418.509 17.4692 418.82L19.0493 417.594ZM17.6184 416.33C17.0482 415.983 16.4119 415.751 15.7226 415.625L15.3627 417.593C15.8381 417.68 16.2388 417.832 16.5776 418.038L17.6184 416.33ZM16.5426 416.614L16.5639 411.947L14.5639 411.938L14.5426 416.604L16.5426 416.614ZM15.4442 412.936C16.3219 413.041 17.1727 413.306 18.0009 413.736L18.9224 411.961C17.8898 411.425 16.8088 411.086 15.6836 410.95L15.4442 412.936ZM18.0035 413.737C18.8145 414.155 19.5469 414.722 20.2019 415.447L21.6859 414.106C20.8778 413.212 19.9554 412.493 18.9198 411.959L18.0035 413.737ZM20.2016 415.447C20.8351 416.149 21.349 416.998 21.7356 418.01L23.6039 417.296C23.1382 416.078 22.5015 415.01 21.6862 414.107L20.2016 415.447ZM21.7344 418.007C22.1037 418.983 22.2983 420.114 22.2983 421.414L24.2983 421.414C24.2983 419.915 24.0739 418.539 23.6051 417.299L21.7344 418.007ZM22.2983 421.414C22.2983 423.203 21.8952 424.768 21.11 426.136L22.8445 427.132C23.8207 425.431 24.2983 423.516 24.2983 421.414L22.2983 421.414ZM21.111 426.134C20.3308 427.487 19.1991 428.567 17.6831 429.373L18.6223 431.139C20.4444 430.17 21.8623 428.835 22.8435 427.133L21.111 426.134ZM17.686 429.372C16.1931 430.159 14.3414 430.577 12.0909 430.577L12.0909 432.577C14.5848 432.577 16.7742 432.114 18.6194 431.14L17.686 429.372ZM12.0909 430.577C9.8351 430.577 7.98212 430.153 6.491 429.353L5.54594 431.116C7.39288 432.106 9.5882 432.577 12.0909 432.577L12.0909 430.577ZM6.491 429.353C4.97528 428.541 3.84715 427.455 3.07353 426.096L1.33556 427.086C2.30911 428.796 3.72359 430.139 5.54594 431.116L6.491 429.353ZM3.0718 426.093C2.28534 424.723 1.88353 423.172 1.88353 421.414L-0.116475 421.414C-0.116475 423.491 0.362395 425.391 1.3373 427.089L3.0718 426.093ZM1.88353 421.414C1.88353 420.244 2.04768 419.179 2.36612 418.211L0.46627 417.586C0.0744829 418.777 -0.116475 420.055 -0.116475 421.414L1.88353 421.414ZM2.36673 418.209C2.68596 417.232 3.14735 416.38 3.74731 415.642L2.19588 414.38C1.4322 415.319 0.856657 416.391 0.465665 417.587L2.36673 418.209ZM3.75053 415.638C4.33834 414.908 5.06036 414.311 5.92641 413.847L4.98126 412.084C3.88709 412.671 2.95427 413.438 2.19266 414.384L3.75053 415.638ZM5.93135 413.844C6.78508 413.38 7.7819 413.072 8.93748 412.936L8.70315 410.95C7.33032 411.112 6.08282 411.486 4.97632 412.087L5.93135 413.844ZM18.1634 389.938L17.6879 390.818L17.6908 390.82L18.1634 389.938ZM21.9879 393.603L22.8579 393.11L22.8572 393.109L21.9879 393.603ZM21.9773 404.022L21.109 403.526L21.9773 404.022ZM18.1527 407.676L18.6252 408.557L18.1527 407.676ZM6.01847 407.676L6.491 406.795L6.491 406.795L6.01847 407.676ZM2.20455 404.022L3.07452 403.529L3.07279 403.526L2.20455 404.022ZM2.20455 393.603L3.07281 394.099L3.07548 394.094L2.20455 393.603ZM6.01847 389.938L6.49101 390.82L6.49391 390.818L6.01847 389.938ZM8.19177 393.955L8.58643 394.873L8.59162 394.871L8.19177 393.955ZM5.7841 395.883L6.61943 396.433L5.7841 395.883ZM5.7841 401.721L6.61943 401.171L5.7841 401.721ZM8.19177 403.66L7.79191 404.576L7.7971 404.579L8.19177 403.66ZM15.9901 403.66L16.3847 404.579L16.3899 404.576L15.9901 403.66ZM18.3977 401.721L17.5624 401.171L18.3977 401.721ZM18.3977 395.883L17.5624 396.433L18.3977 395.883ZM15.9901 393.955L15.5902 394.871L15.5954 394.873L15.9901 393.955ZM12.0909 389.585C14.3456 389.585 16.1975 390.012 17.6879 390.818L18.6388 389.058C16.7912 388.06 14.5948 387.585 12.0909 387.585L12.0909 389.585ZM17.6908 390.82C19.2048 391.631 20.3371 392.723 21.1187 394.097L22.8572 393.109C21.8774 391.386 20.46 390.035 18.6359 389.057L17.6908 390.82ZM21.118 394.096C21.899 395.474 22.2983 397.035 22.2983 398.802L24.2983 398.802C24.2983 396.72 23.824 394.814 22.8579 393.11L21.118 394.096ZM22.2983 398.802C22.2983 400.583 21.8955 402.15 21.109 403.526L22.8455 404.518C23.8204 402.812 24.2983 400.898 24.2983 398.802L22.2983 398.802ZM21.109 403.526C20.3278 404.893 19.1953 405.982 17.6802 406.795L18.6252 408.557C20.4482 407.58 21.8654 406.233 22.8455 404.518L21.109 403.526ZM17.6802 406.795C16.1887 407.595 14.3391 408.018 12.0909 408.018L12.0909 410.018C14.5871 410.018 16.7787 409.548 18.6252 408.557L17.6802 406.795ZM12.0909 408.018C9.8351 408.018 7.98212 407.594 6.491 406.795L5.54594 408.557C7.39288 409.548 9.5882 410.018 12.0909 410.018L12.0909 408.018ZM6.491 406.795C4.97646 405.983 3.84845 404.894 3.07451 403.529L1.33458 404.515C2.30781 406.232 3.72241 407.58 5.54594 408.557L6.491 406.795ZM3.07279 403.526C2.28629 402.15 1.88353 400.583 1.88353 398.802L-0.116474 398.802C-0.116474 400.898 0.361441 402.812 1.33631 404.518L3.07279 403.526ZM1.88353 398.802C1.88353 397.036 2.28565 395.477 3.07279 394.099L1.33631 393.107C0.36208 394.812 -0.116474 396.718 -0.116474 398.802L1.88353 398.802ZM3.07548 394.094C3.84975 392.722 4.97764 391.631 6.491 390.82L5.54594 389.057C3.72123 390.035 2.30651 391.387 1.33361 393.112L3.07548 394.094ZM6.49391 390.818C7.98436 390.012 9.83625 389.585 12.0909 389.585L12.0909 387.585C9.58706 387.585 7.39065 388.06 5.54303 389.058L6.49391 390.818ZM12.0909 392.262C10.4558 392.262 9.01094 392.506 7.79191 393.038L8.59162 394.871C9.48907 394.48 10.6437 394.262 12.0909 394.262L12.0909 392.262ZM7.7971 393.036C6.5881 393.555 5.61942 394.314 4.94876 395.333L6.61943 396.433C7.04252 395.79 7.67895 395.263 8.58643 394.873L7.7971 393.036ZM4.94877 395.333C4.28178 396.347 3.96378 397.516 3.96378 398.802L5.96378 398.802C5.96378 397.858 6.19267 397.081 6.61943 396.433L4.94877 395.333ZM3.96378 398.802C3.96378 400.088 4.28178 401.257 4.94877 402.271L6.61943 401.171C6.19267 400.523 5.96378 399.746 5.96378 398.802L3.96378 398.802ZM4.94876 402.271C5.61844 403.288 6.58522 404.05 7.79191 404.576L8.59162 402.743C7.68183 402.346 7.04351 401.816 6.61943 401.171L4.94876 402.271ZM7.7971 404.579C9.01452 405.102 10.4574 405.342 12.0909 405.342L12.0909 403.342C10.642 403.342 9.48548 403.127 8.58643 402.741L7.7971 404.579ZM12.0909 405.342C13.7244 405.342 15.1673 405.102 16.3847 404.579L15.5954 402.741C14.6963 403.127 13.5398 403.342 12.0909 403.342L12.0909 405.342ZM16.3899 404.576C17.5966 404.05 18.5634 403.288 19.2331 402.271L17.5624 401.171C17.1383 401.816 16.5 402.346 15.5902 402.743L16.3899 404.576ZM19.2331 402.271C19.9001 401.257 20.218 400.088 20.218 398.802L18.218 398.802C18.218 399.746 17.9892 400.523 17.5624 401.171L19.2331 402.271ZM20.218 398.802C20.218 397.516 19.9001 396.347 19.2331 395.333L17.5624 396.433C17.9892 397.081 18.218 397.858 18.218 398.802L20.218 398.802ZM19.2331 395.333C18.5624 394.314 17.5937 393.555 16.3847 393.036L15.5954 394.873C16.5029 395.263 17.1393 395.79 17.5624 396.433L19.2331 395.333ZM16.3899 393.038C15.1709 392.506 13.7261 392.262 12.0909 392.262L12.0909 394.262C13.5382 394.262 14.6928 394.48 15.5902 394.871L16.3899 393.038ZM23 385.168L23 386.168L24 386.168L24 385.168L23 385.168ZM1.18182 385.168L0.181822 385.168L0.181822 386.168L1.18182 386.168L1.18182 385.168ZM1.18182 380.555L1.18182 379.555L0.181823 379.555L0.181823 380.555L1.18182 380.555ZM10.184 380.555L10.184 381.555L11.184 381.555L11.184 380.555L10.184 380.555ZM10.184 371.191L11.184 371.191L11.184 370.191L10.184 370.191L10.184 371.191ZM1.18182 371.191L0.181823 371.191L0.181823 372.191L1.18182 372.191L1.18182 371.191ZM1.18182 366.589L1.18182 365.589L0.181823 365.589L0.181823 366.589L1.18182 366.589ZM23 366.589L24 366.589L24 365.589L23 365.589L23 366.589ZM23 371.191L23 372.191L24 372.191L24 371.191L23 371.191ZM13.9872 371.191L13.9872 370.191L12.9872 370.191L12.9872 371.191L13.9872 371.191ZM13.9872 380.555L12.9872 380.555L12.9872 381.555L13.9872 381.555L13.9872 380.555ZM23 380.555L24 380.555L24 379.555L23 379.555L23 380.555ZM23 384.168L1.18182 384.168L1.18182 386.168L23 386.168L23 384.168ZM2.18182 385.168L2.18182 380.555L0.181823 380.555L0.181822 385.168L2.18182 385.168ZM1.18182 381.555L10.184 381.555L10.184 379.555L1.18182 379.555L1.18182 381.555ZM11.184 380.555L11.184 371.191L9.18395 371.191L9.18395 380.555L11.184 380.555ZM10.184 370.191L1.18182 370.191L1.18182 372.191L10.184 372.191L10.184 370.191ZM2.18182 371.191L2.18182 366.589L0.181823 366.589L0.181823 371.191L2.18182 371.191ZM1.18182 367.589L23 367.589L23 365.589L1.18182 365.589L1.18182 367.589ZM22 366.589L22 371.191L24 371.191L24 366.589L22 366.589ZM23 370.191L13.9872 370.191L13.9872 372.191L23 372.191L23 370.191ZM12.9872 371.191L12.9872 380.555L14.9872 380.555L14.9872 371.191L12.9872 371.191ZM13.9872 381.555L23 381.555L23 379.555L13.9872 379.555L13.9872 381.555ZM22 380.555L22 385.168L24 385.168L24 380.555L22 380.555ZM23 359.025L24 359.025L24 358.298L23.3094 358.074L23 359.025ZM23 363.968L22.6737 364.913L24 365.371L24 363.968L23 363.968ZM1.18182 356.436L0.181824 356.436L0.181824 357.149L0.855506 357.381L1.18182 356.436ZM1.18182 350.491L0.855919 349.546L0.181824 349.778L0.181824 350.491L1.18182 350.491ZM23 342.97L24 342.97L24 341.568L22.6741 342.025L23 342.97ZM23 347.913L23.3088 348.864L24 348.64L24 347.913L23 347.913ZM6.16762 353.378L5.85881 352.427L5.16762 352.652L5.16762 353.378L6.16762 353.378ZM6.16762 353.549L5.16762 353.549L5.16762 354.275L5.85826 354.5L6.16762 353.549ZM14.424 359.334L13.424 359.334L13.424 360.334L14.424 360.334L14.424 359.334ZM14.424 347.657L14.424 346.657L13.424 346.657L13.424 347.657L14.424 347.657ZM18.0249 347.657L19.0249 347.657L19.0249 346.657L18.0249 346.657L18.0249 347.657ZM18.0249 359.334L18.0249 360.334L19.0249 360.334L19.0249 359.334L18.0249 359.334ZM22 359.025L22 363.968L24 363.968L24 359.025L22 359.025ZM23.3263 363.023L1.50814 355.491L0.855506 357.381L22.6737 364.913L23.3263 363.023ZM2.18182 356.436L2.18182 350.491L0.181824 350.491L0.181824 356.436L2.18182 356.436ZM1.50773 351.437L23.3259 343.915L22.6741 342.025L0.855919 349.546L1.50773 351.437ZM22 342.97L22 347.913L24 347.913L24 342.97L22 342.97ZM22.6912 346.962L5.85881 352.427L6.47643 354.329L23.3088 348.864L22.6912 346.962ZM5.16762 353.378L5.16762 353.549L7.16762 353.549L7.16762 353.378L5.16762 353.378ZM5.85826 354.5L22.6906 359.976L23.3094 358.074L6.47698 352.598L5.85826 354.5ZM15.424 359.334L15.424 347.657L13.424 347.657L13.424 359.334L15.424 359.334ZM14.424 348.657L18.0249 348.657L18.0249 346.657L14.424 346.657L14.424 348.657ZM17.0249 347.657L17.0249 359.334L19.0249 359.334L19.0249 347.657L17.0249 347.657ZM18.0249 358.334L14.424 358.334L14.424 360.334L18.0249 360.334L18.0249 358.334ZM23 341.526L23 342.526L24 342.526L24 341.526L23 341.526ZM19.2926 341.526L18.2963 341.612L18.3751 342.526L19.2926 342.526L19.2926 341.526ZM19.2394 340.909L18.2425 340.989L18.243 340.994L19.2394 340.909ZM18.3338 338.98L19.006 338.24L19.0012 338.236L18.3338 338.98ZM15.7237 337.883L15.5209 338.862L15.5254 338.863L15.7237 337.883ZM10.8871 337.404L10.8498 338.403L10.852 338.403L10.8871 337.404ZM1.18182 337.041L0.181824 337.041L0.181824 338.005L1.14453 338.041L1.18182 337.041ZM1.18183 322.233L1.18183 321.233L0.181825 321.233L0.181825 322.233L1.18183 322.233ZM23 322.233L24 322.233L24 321.233L23 321.233L23 322.233ZM23 326.718L23 327.718L24 327.718L24 326.718L23 326.718ZM4.87856 326.718L4.87856 325.718L3.87856 325.718L3.87856 326.718L4.87856 326.718ZM4.87856 332.759L3.87856 332.759L3.87856 333.715L4.83372 333.758L4.87856 332.759ZM12.4744 333.1L12.5209 332.101L12.5193 332.101L12.4744 333.1ZM18.4617 333.973L18.1719 334.93L18.1759 334.932L18.4617 333.973ZM21.8921 336.189L21.0833 336.777L21.0853 336.78L21.8921 336.189ZM23 340.526L19.2926 340.526L19.2926 342.526L23 342.526L23 340.526ZM20.2889 341.441L20.2357 340.823L18.243 340.994L18.2963 341.612L20.2889 341.441ZM20.2361 340.828C20.154 339.806 19.7525 338.918 19.006 338.24L17.6616 339.721C17.9947 340.023 18.1969 340.42 18.2426 340.989L20.2361 340.828ZM19.0012 338.236C18.2612 337.572 17.1876 337.159 15.9221 336.903L15.5254 338.863C16.6462 339.09 17.3127 339.408 17.6665 339.725L19.0012 338.236ZM15.9265 336.904C14.647 336.639 12.9714 336.476 10.9221 336.404L10.852 338.403C12.8511 338.473 14.3998 338.63 15.5209 338.862L15.9265 336.904ZM10.9244 336.404L1.21912 336.042L1.14453 338.041L10.8498 338.403L10.9244 336.404ZM2.18182 337.041L2.18183 322.233L0.181825 322.233L0.181824 337.041L2.18182 337.041ZM1.18183 323.233L23 323.233L23 321.233L1.18183 321.233L1.18183 323.233ZM22 322.233L22 326.718L24 326.718L24 322.233L22 322.233ZM23 325.718L4.87856 325.718L4.87856 327.718L23 327.718L23 325.718ZM3.87856 326.718L3.87856 332.759L5.87856 332.759L5.87856 326.718L3.87856 326.718ZM4.83372 333.758L12.4296 334.099L12.5193 332.101L4.92339 331.76L4.83372 333.758ZM12.428 334.099C14.8261 334.21 16.7319 334.494 18.1719 334.93L18.7514 333.016C17.0948 332.515 15.0091 332.216 12.5209 332.101L12.428 334.099ZM18.1759 334.932C19.5747 335.349 20.5066 335.984 21.0833 336.777L22.7008 335.601C21.8003 334.363 20.4452 333.521 18.7474 333.015L18.1759 334.932ZM21.0853 336.78C21.6568 337.56 22 338.708 22 340.333L24 340.333C24 338.45 23.6046 336.835 22.6988 335.598L21.0853 336.78ZM22 340.333L22 341.526L24 341.526L24 340.333L22 340.333ZM9.24646 315.394L8.24646 315.394L8.24646 316.394L9.24646 316.394L9.24646 315.394ZM10.0881 305.72L11.0004 306.13L11.0032 306.124L10.0881 305.72ZM12.4425 302.812L12.9999 303.642L12.9999 303.642L12.4425 302.812ZM16.0327 301.8L16.0275 302.8L16.0379 302.8L16.0327 301.8ZM19.6655 302.812L20.2123 301.975L20.2097 301.973L19.6655 302.812ZM22.1158 305.72L21.2104 306.145L21.2113 306.147L22.1158 305.72ZM23 318.345L23 319.345L24 319.345L24 318.345L23 318.345ZM1.18183 318.345L0.181825 318.345L0.181825 319.345L1.18183 319.345L1.18183 318.345ZM1.18183 313.742L1.18183 312.742L0.181825 312.742L0.181825 313.742L1.18183 313.742ZM19.2926 313.742L19.2926 314.742L20.2926 314.742L20.2926 313.742L19.2926 313.742ZM18.8452 308.096L19.7306 307.631L19.726 307.623L18.8452 308.096ZM17.6413 306.807L17.1322 307.668L17.1359 307.67L17.6413 306.807ZM15.9901 306.37L15.9819 307.37L15.9919 307.37L16.002 307.37L15.9901 306.37ZM13.7955 307.35L14.53 308.029L14.5376 308.021L13.7955 307.35ZM12.8899 315.394L12.8899 316.394L13.8899 316.394L13.8899 315.394L12.8899 315.394ZM10.2465 315.394L10.2465 310.195L8.24646 310.195L8.24646 315.394L10.2465 315.394ZM10.2465 310.195C10.2465 308.567 10.5103 307.222 11.0004 306.13L9.17577 305.311C8.54372 306.719 8.24646 308.357 8.24646 310.195L10.2465 310.195ZM11.0032 306.124C11.4904 305.018 12.1603 304.206 12.9999 303.642L11.8851 301.982C10.6934 302.782 9.79368 303.909 9.17299 305.317L11.0032 306.124ZM12.9999 303.642C13.8287 303.086 14.8237 302.794 16.0275 302.8L16.0378 300.8C14.4859 300.792 13.0875 301.174 11.8851 301.982L12.9999 303.642ZM16.0379 302.8C17.2328 302.794 18.249 303.085 19.1213 303.651L20.2097 301.973C18.9797 301.175 17.574 300.792 16.0275 300.8L16.0379 302.8ZM19.1187 303.649C19.99 304.218 20.6905 305.036 21.2104 306.145L23.0212 305.296C22.362 303.89 21.4291 302.769 20.2123 301.975L19.1187 303.649ZM21.2113 306.147C21.724 307.234 22 308.573 22 310.195L24 310.195C24 308.351 23.6865 306.707 23.0202 305.294L21.2113 306.147ZM22 310.195L22 318.345L24 318.345L24 310.195L22 310.195ZM23 317.345L1.18183 317.345L1.18183 319.345L23 319.345L23 317.345ZM2.18183 318.345L2.18183 313.742L0.181825 313.742L0.181825 318.345L2.18183 318.345ZM1.18183 314.742L19.2926 314.742L19.2926 312.742L1.18183 312.742L1.18183 314.742ZM20.2926 313.742L20.2926 310.195L18.2926 310.195L18.2926 313.742L20.2926 313.742ZM20.2926 310.195C20.2926 309.248 20.1231 308.379 19.7306 307.631L17.9598 308.561C18.1639 308.95 18.2926 309.479 18.2926 310.195L20.2926 310.195ZM19.726 307.623C19.3443 306.912 18.8209 306.339 18.1467 305.944L17.1359 307.67C17.4562 307.857 17.7353 308.143 17.9644 308.57L19.726 307.623ZM18.1505 305.946C17.4855 305.553 16.7544 305.361 15.9782 305.37L16.002 307.37C16.4189 307.365 16.7886 307.464 17.1322 307.668L18.1505 305.946ZM15.9983 305.37C14.8373 305.361 13.8355 305.814 13.0534 306.68L14.5376 308.021C14.9486 307.566 15.4098 307.365 15.9819 307.37L15.9983 305.37ZM13.061 306.672C12.2289 307.572 11.8899 308.801 11.8899 310.195L13.8899 310.195C13.8899 309.103 14.1546 308.435 14.53 308.029L13.061 306.672ZM11.8899 310.195L11.8899 315.394L13.8899 315.394L13.8899 310.195L11.8899 310.195ZM12.8899 314.394L9.24646 314.394L9.24646 316.394L12.8899 316.394L12.8899 314.394ZM23 298.127L23 299.127L24 299.127L24 298.127L23 298.127ZM1.18183 298.127L0.181826 298.127L0.181826 299.127L1.18183 299.127L1.18183 298.127ZM1.18183 293.514L1.18183 292.514L0.181826 292.514L0.181826 293.514L1.18183 293.514ZM10.184 293.514L10.184 294.514L11.184 294.514L11.184 293.514L10.184 293.514ZM10.184 284.15L11.184 284.15L11.184 283.15L10.184 283.15L10.184 284.15ZM1.18183 284.15L0.181827 284.15L0.181827 285.15L1.18183 285.15L1.18183 284.15ZM1.18183 279.548L1.18183 278.548L0.181827 278.548L0.181827 279.548L1.18183 279.548ZM23 279.548L24 279.548L24 278.548L23 278.548L23 279.548ZM23 284.15L23 285.15L24 285.15L24 284.15L23 284.15ZM13.9872 284.15L13.9872 283.15L12.9872 283.15L12.9872 284.15L13.9872 284.15ZM13.9872 293.514L12.9872 293.514L12.9872 294.514L13.9872 294.514L13.9872 293.514ZM23 293.514L24 293.514L24 292.514L23 292.514L23 293.514ZM23 297.127L1.18183 297.127L1.18183 299.127L23 299.127L23 297.127ZM2.18183 298.127L2.18183 293.514L0.181826 293.514L0.181826 298.127L2.18183 298.127ZM1.18183 294.514L10.184 294.514L10.184 292.514L1.18183 292.514L1.18183 294.514ZM11.184 293.514L11.184 284.15L9.18396 284.15L9.18396 293.514L11.184 293.514ZM10.184 283.15L1.18183 283.15L1.18183 285.15L10.184 285.15L10.184 283.15ZM2.18183 284.15L2.18183 279.548L0.181827 279.548L0.181827 284.15L2.18183 284.15ZM1.18183 280.548L23 280.548L23 278.548L1.18183 278.548L1.18183 280.548ZM22 279.548L22 284.15L24 284.15L24 279.548L22 279.548ZM23 283.15L13.9872 283.15L13.9872 285.15L23 285.15L23 283.15ZM12.9872 284.15L12.9872 293.514L14.9872 293.514L14.9872 284.15L12.9872 284.15ZM13.9872 294.514L23 294.514L23 292.514L13.9872 292.514L13.9872 294.514ZM22 293.514L22 298.127L24 298.127L24 293.514L22 293.514ZM23 271.984L24 271.984L24 271.257L23.3094 271.033L23 271.984ZM23 276.927L22.6737 277.872L24 278.33L24 276.927L23 276.927ZM1.18183 269.395L0.181827 269.395L0.181827 270.108L0.85551 270.34L1.18183 269.395ZM1.18183 263.45L0.855922 262.505L0.181828 262.737L0.181828 263.45L1.18183 263.45ZM23 255.929L24 255.929L24 254.527L22.6741 254.984L23 255.929ZM23 260.872L23.3088 261.823L24 261.599L24 260.872L23 260.872ZM6.16762 266.337L5.85881 265.386L5.16762 265.611L5.16762 266.337L6.16762 266.337ZM6.16762 266.508L5.16762 266.508L5.16762 267.234L5.85827 267.459L6.16762 266.508ZM14.424 272.293L13.424 272.293L13.424 273.293L14.424 273.293L14.424 272.293ZM14.424 260.616L14.424 259.616L13.424 259.616L13.424 260.616L14.424 260.616ZM18.0249 260.616L19.0249 260.616L19.0249 259.616L18.0249 259.616L18.0249 260.616ZM18.0249 272.293L18.0249 273.293L19.0249 273.293L19.0249 272.293L18.0249 272.293ZM22 271.984L22 276.927L24 276.927L24 271.984L22 271.984ZM23.3263 275.982L1.50815 268.45L0.85551 270.34L22.6737 277.872L23.3263 275.982ZM2.18183 269.395L2.18183 263.45L0.181828 263.45L0.181827 269.395L2.18183 269.395ZM1.50773 264.396L23.3259 256.874L22.6741 254.984L0.855922 262.505L1.50773 264.396ZM22 255.929L22 260.872L24 260.872L24 255.929L22 255.929ZM22.6912 259.921L5.85881 265.386L6.47644 267.288L23.3088 261.823L22.6912 259.921ZM5.16762 266.337L5.16762 266.508L7.16762 266.508L7.16762 266.337L5.16762 266.337ZM5.85827 267.459L22.6907 272.935L23.3094 271.033L6.47698 265.557L5.85827 267.459ZM15.424 272.293L15.424 260.616L13.424 260.616L13.424 272.293L15.424 272.293ZM14.424 261.616L18.0249 261.616L18.0249 259.616L14.424 259.616L14.424 261.616ZM17.0249 260.616L17.0249 272.293L19.0249 272.293L19.0249 260.616L17.0249 260.616ZM18.0249 271.293L14.424 271.293L14.424 273.293L18.0249 273.293L18.0249 271.293ZM23 236.556L24 236.556L24 235.556L23 235.556L23 236.556ZM23 241.158L23 242.158L24 242.158L24 241.158L23 241.158ZM4.95314 241.158L4.95314 240.158L3.95314 240.158L3.95314 241.158L4.95314 241.158ZM5.34731 246.485L6.26297 246.083L6.26067 246.078L5.34731 246.485ZM6.47657 247.795L6.98198 246.932L6.98198 246.932L6.47657 247.795ZM10.1094 247.795L10.6257 248.651L10.6257 248.651L10.1094 247.795ZM11.196 246.485L12.1198 246.868L12.1198 246.868L11.196 246.485ZM11.5583 239.283L11.5583 238.283L10.5583 238.283L10.5583 239.283L11.5583 239.283ZM15.2656 239.283L16.2656 239.283L16.2656 238.283L15.2656 238.283L15.2656 239.283ZM12.0483 252.035L12.5619 252.893L12.5645 252.892L12.0483 252.035ZM4.54831 252.056L4.04908 252.923L4.05092 252.924L4.54831 252.056ZM2.06606 249.382L2.96049 248.935L2.9594 248.933L2.06606 249.382ZM1.18183 236.556L1.18183 235.556L0.181829 235.556L0.181829 236.556L1.18183 236.556ZM13.071 248.328L12.071 248.328L12.071 248.921L12.5917 249.205L13.071 248.328ZM13.071 243.353L13.5423 242.471L12.071 241.684L12.071 243.353L13.071 243.353ZM23 248.658L24 248.658L24 248.059L23.4713 247.776L23 248.658ZM23 253.75L22.5207 254.628L24 255.436L24 253.75L23 253.75ZM22 236.556L22 241.158L24 241.158L24 236.556L22 236.556ZM23 240.158L4.95314 240.158L4.95314 242.158L23 242.158L23 240.158ZM3.95314 241.158L3.95314 244.269L5.95314 244.269L5.95314 241.158L3.95314 241.158ZM3.95314 244.269C3.95314 245.247 4.09686 246.136 4.43395 246.892L6.26067 246.078C6.07219 245.655 5.95314 245.066 5.95314 244.269L3.95314 244.269ZM4.43167 246.887C4.76285 247.641 5.2732 248.249 5.97117 248.658L6.98198 246.932C6.68562 246.759 6.44314 246.493 6.26296 246.083L4.43167 246.887ZM5.97117 248.658C6.65638 249.059 7.45201 249.232 8.30896 249.232L8.30896 247.232C7.71704 247.232 7.29109 247.113 6.98198 246.932L5.97117 248.658ZM8.30896 249.232C9.15945 249.232 9.94986 249.059 10.6257 248.651L9.59304 246.939C9.30301 247.114 8.89312 247.232 8.30896 247.232L8.30896 249.232ZM10.6257 248.651C11.3129 248.237 11.8066 247.623 12.1198 246.868L10.2723 246.102C10.1025 246.511 9.87176 246.771 9.59304 246.939L10.6257 248.651ZM12.1198 246.868C12.4273 246.126 12.5582 245.254 12.5582 244.29L10.5582 244.29C10.5582 245.088 10.4477 245.679 10.2723 246.102L12.1198 246.868ZM12.5582 244.29L12.5583 239.283L10.5583 239.283L10.5582 244.29L12.5582 244.29ZM11.5583 240.283L15.2656 240.283L15.2656 238.283L11.5583 238.283L11.5583 240.283ZM14.2656 239.283L14.2656 245.036L16.2656 245.036L16.2656 239.283L14.2656 239.283ZM14.2656 245.036C14.2656 246.598 14.0062 247.873 13.5286 248.895L15.3407 249.742C15.9711 248.392 16.2656 246.812 16.2656 245.036L14.2656 245.036ZM13.5286 248.895C13.0515 249.917 12.385 250.665 11.5321 251.179L12.5645 252.892C13.7855 252.156 14.7098 251.092 15.3407 249.742L13.5286 248.895ZM11.5347 251.177C10.6732 251.693 9.61165 251.973 8.30896 251.973L8.30896 253.973C9.904 253.973 11.3354 253.627 12.5619 252.893L11.5347 251.177ZM8.30896 251.973C7.01112 251.973 5.93514 251.699 5.04569 251.189L4.05092 252.924C5.29215 253.636 6.72328 253.973 8.30896 253.973L8.30896 251.973ZM5.04753 251.19C4.15421 250.675 3.45995 249.934 2.96049 248.935L1.17163 249.83C1.83695 251.16 2.79752 252.202 4.04908 252.923L5.04753 251.19ZM2.9594 248.933C2.45569 247.932 2.18183 246.684 2.18183 245.153L0.181828 245.153C0.181828 246.918 0.497456 248.489 1.17272 249.832L2.9594 248.933ZM2.18183 245.153L2.18183 236.556L0.181829 236.556L0.181828 245.153L2.18183 245.153ZM1.18183 237.556L23 237.556L23 235.556L1.18183 235.556L1.18183 237.556ZM14.071 248.328L14.071 243.353L12.071 243.353L12.071 248.328L14.071 248.328ZM12.5998 244.235L22.5287 249.54L23.4713 247.776L13.5423 242.471L12.5998 244.235ZM22 248.658L22 253.75L24 253.75L24 248.658L22 248.658ZM23.4793 252.873L13.5503 247.45L12.5917 249.205L22.5207 254.628L23.4793 252.873ZM1.18183 225.822L0.181829 225.822L0.181829 226.822L1.18183 226.822L1.18183 225.822ZM1.18183 221.22L1.18183 220.22L0.18183 220.22L0.181829 221.22L1.18183 221.22ZM14.9034 221.22L14.9034 222.22L15.9034 222.22L15.9034 221.22L14.9034 221.22ZM14.9034 221.039L15.9034 221.039L15.9034 220.513L15.4697 220.215L14.9034 221.039ZM1.18183 211.611L0.18183 211.611L0.18183 212.137L0.615519 212.435L1.18183 211.611ZM1.18183 207.573L1.18183 206.573L0.18183 206.573L0.18183 207.573L1.18183 207.573ZM23 207.573L24 207.573L24 206.573L23 206.573L23 207.573ZM23 212.186L23 213.186L24 213.186L24 212.186L23 212.186ZM9.26777 212.186L9.26777 211.186L8.26777 211.186L8.26777 212.186L9.26777 212.186ZM9.26777 212.346L8.26777 212.346L8.26777 212.871L8.69959 213.169L9.26777 212.346ZM23 221.827L24 221.827L24 221.303L23.5682 221.005L23 221.827ZM23 225.822L23 226.822L24 226.822L24 225.822L23 225.822ZM2.18183 225.822L2.18183 221.22L0.181829 221.22L0.181829 225.822L2.18183 225.822ZM1.18183 222.22L14.9034 222.22L14.9034 220.22L1.18183 220.22L1.18183 222.22ZM15.9034 221.22L15.9034 221.039L13.9034 221.039L13.9034 221.22L15.9034 221.22ZM15.4697 220.215L1.74814 210.787L0.615519 212.435L14.3371 221.863L15.4697 220.215ZM2.18183 211.611L2.18183 207.573L0.18183 207.573L0.18183 211.611L2.18183 211.611ZM1.18183 208.573L23 208.573L23 206.573L1.18183 206.573L1.18183 208.573ZM22 207.573L22 212.186L24 212.186L24 207.573L22 207.573ZM23 211.186L9.26777 211.186L9.26777 213.186L23 213.186L23 211.186ZM8.26777 212.186L8.26777 212.346L10.2678 212.346L10.2678 212.186L8.26777 212.186ZM8.69959 213.169L22.4318 222.65L23.5682 221.005L9.83595 211.523L8.69959 213.169ZM22 221.827L22 225.822L24 225.822L24 221.827L22 221.827ZM23 224.822L1.18183 224.822L1.18183 226.822L23 226.822L23 224.822ZM23 203.762L23 204.762L24 204.762L24 203.762L23 203.762ZM1.18183 203.762L0.18183 203.762L0.18183 204.762L1.18183 204.762L1.18183 203.762ZM1.18183 199.149L1.18183 198.149L0.181831 198.149L0.18183 199.149L1.18183 199.149ZM10.184 199.149L10.184 200.149L11.184 200.149L11.184 199.149L10.184 199.149ZM10.184 189.785L11.184 189.785L11.184 188.785L10.184 188.785L10.184 189.785ZM1.18183 189.785L0.181831 189.785L0.181831 190.785L1.18183 190.785L1.18183 189.785ZM1.18183 185.182L1.18183 184.182L0.181831 184.182L0.181831 185.182L1.18183 185.182ZM23 185.182L24 185.182L24 184.182L23 184.182L23 185.182ZM23 189.785L23 190.785L24 190.785L24 189.785L23 189.785ZM13.9872 189.785L13.9872 188.785L12.9872 188.785L12.9872 189.785L13.9872 189.785ZM13.9872 199.149L12.9872 199.149L12.9872 200.149L13.9872 200.149L13.9872 199.149ZM23 199.149L24 199.149L24 198.149L23 198.149L23 199.149ZM23 202.762L1.18183 202.762L1.18183 204.762L23 204.762L23 202.762ZM2.18183 203.762L2.18183 199.149L0.18183 199.149L0.18183 203.762L2.18183 203.762ZM1.18183 200.149L10.184 200.149L10.184 198.149L1.18183 198.149L1.18183 200.149ZM11.184 199.149L11.184 189.785L9.18396 189.785L9.18396 199.149L11.184 199.149ZM10.184 188.785L1.18183 188.785L1.18183 190.785L10.184 190.785L10.184 188.785ZM2.18183 189.785L2.18183 185.182L0.181831 185.182L0.181831 189.785L2.18183 189.785ZM1.18183 186.182L23 186.182L23 184.182L1.18183 184.182L1.18183 186.182ZM22 185.182L22 189.785L24 189.785L24 185.182L22 185.182ZM23 188.785L13.9872 188.785L13.9872 190.785L23 190.785L23 188.785ZM12.9872 189.785L12.9872 199.149L14.9872 199.149L14.9872 189.785L12.9872 189.785ZM13.9872 200.149L23 200.149L23 198.149L13.9872 198.149L13.9872 200.149ZM22 199.149L22 203.762L24 203.762L24 199.149L22 199.149ZM4.63354 163.226L5.51073 163.706L5.51178 163.704L4.63354 163.226ZM7.75499 160.04L8.25114 160.909L8.25657 160.905L7.75499 160.04ZM17.0341 160.04L16.5224 160.899L16.5259 160.902L17.0341 160.04ZM20.0703 163.226L20.9533 162.756L20.9524 162.755L20.0703 163.226ZM20.081 177.416L20.965 177.883L20.9669 177.88L20.081 177.416ZM17.0554 180.612L17.5637 181.473L17.5671 181.471L17.0554 180.612ZM7.74433 180.601L7.24131 181.466L7.24275 181.466L7.74433 180.601ZM4.63354 177.395L5.51372 176.92L5.51178 176.917L4.63354 177.395ZM7.94675 175.232L8.83397 174.771L8.83224 174.767L7.94675 175.232ZM9.62999 176.894L10.0971 176.01L10.0971 176.01L9.62999 176.894ZM15.1485 176.883L15.64 177.754L15.6464 177.751L15.1485 176.883ZM16.7465 165.399L15.8575 165.857L15.8594 165.861L16.7465 165.399ZM15.1271 163.769L14.6489 164.647L14.6557 164.651L15.1271 163.769ZM9.64064 163.769L10.0946 164.66L10.1012 164.657L9.64064 163.769ZM7.94675 165.399L8.82636 165.875L8.82836 165.871L7.94675 165.399ZM0.79831 168.126L0.79831 167.126L-0.20169 167.126L-0.20169 168.126L0.79831 168.126ZM23.8949 168.126L24.8949 168.126L24.8949 167.126L23.8949 167.126L23.8949 168.126ZM23.8949 172.505L23.8949 173.505L24.8949 173.505L24.8949 172.505L23.8949 172.505ZM0.79831 172.505L-0.20169 172.505L-0.20169 173.505L0.79831 173.505L0.79831 172.505ZM4.52558 172.75L4.52558 167.871L2.52558 167.871L2.52558 172.75L4.52558 172.75ZM4.52558 167.871C4.52558 166.268 4.86306 164.889 5.51073 163.706L3.75635 162.746C2.92674 164.261 2.52558 165.979 2.52558 167.871L4.52558 167.871ZM5.51178 163.704C6.16161 162.51 7.06972 161.584 8.25112 160.909L7.25885 159.172C5.75559 160.031 4.58274 161.228 3.75529 162.747L5.51178 163.704ZM8.25657 160.905C9.41537 160.234 10.806 159.879 12.4638 159.879L12.4638 157.879C10.5137 157.879 8.76505 158.299 7.25341 159.175L8.25657 160.905ZM12.4638 159.879C14.0591 159.879 15.4001 160.231 16.5224 160.899L17.5458 159.181C16.0687 158.301 14.3628 157.879 12.4638 157.879L12.4638 159.879ZM16.5259 160.902C17.6644 161.573 18.5485 162.499 19.1882 163.697L20.9524 162.755C20.1433 161.239 19.0033 160.041 17.5424 159.179L16.5259 160.902ZM19.1873 163.695C19.8174 164.88 20.1463 166.263 20.1463 167.871L22.1463 167.871C22.1463 165.983 21.7579 164.27 20.9533 162.756L19.1873 163.695ZM20.1463 167.871L20.1463 172.75L22.1463 172.75L22.1463 167.871L20.1463 167.871ZM20.1463 172.75C20.1463 174.366 19.8201 175.758 19.1951 176.952L20.9669 177.88C21.7623 176.361 22.1463 174.642 22.1463 172.75L20.1463 172.75ZM19.197 176.949C18.5641 178.145 17.6833 179.074 16.5437 179.753L17.5671 181.471C19.0269 180.602 20.1632 179.4 20.965 177.883L19.197 176.949ZM16.5472 179.751C15.4261 180.412 14.0739 180.763 12.4531 180.763L12.4531 182.763C14.3694 182.763 16.0853 182.346 17.5637 181.473L16.5472 179.751ZM12.4531 180.763C10.7953 180.763 9.40472 180.408 8.24591 179.736L7.24275 181.466C8.7544 182.343 10.503 182.763 12.4531 182.763L12.4531 180.763ZM8.24735 179.737C7.06292 179.048 6.1571 178.113 5.51371 176.92L3.75336 177.869C4.57304 179.389 5.74108 180.592 7.24131 181.466L8.24735 179.737ZM5.51178 176.917C4.86271 175.724 4.52558 174.344 4.52558 172.75L2.52558 172.75C2.52558 174.635 2.92709 176.352 3.75529 177.873L5.51178 176.917ZM6.38212 172.75C6.38212 173.824 6.59858 174.815 7.06126 175.697L8.83224 174.767C8.54207 174.214 8.38212 173.551 8.38212 172.75L6.38212 172.75ZM7.05953 175.693C7.52875 176.596 8.24234 177.292 9.16286 177.778L10.0971 176.01C9.51195 175.701 9.10338 175.289 8.83396 174.771L7.05953 175.693ZM9.16286 177.778C10.0989 178.273 11.2122 178.491 12.4531 178.491L12.4531 176.491C11.4356 176.491 10.6667 176.311 10.0971 176.01L9.16286 177.778ZM12.4531 178.491C13.653 178.491 14.7331 178.266 15.6399 177.754L14.657 176.012C14.1291 176.31 13.4124 176.491 12.4531 176.491L12.4531 178.491ZM15.6464 177.751C16.5268 177.245 17.2047 176.541 17.6515 175.647L15.8627 174.753C15.5993 175.28 15.2047 175.698 14.6505 176.016L15.6464 177.751ZM17.6515 175.647C18.0866 174.777 18.2898 173.803 18.2898 172.75L16.2898 172.75C16.2898 173.543 16.1379 174.202 15.8627 174.753L17.6515 175.647ZM18.2898 172.75L18.2898 167.839L16.2898 167.839L16.2898 172.75L18.2898 172.75ZM18.2898 167.839C18.2898 166.777 18.0826 165.8 17.6335 164.937L15.8594 165.861C16.1348 166.39 16.2898 167.039 16.2898 167.839L18.2898 167.839ZM17.6354 164.941C17.1775 164.052 16.4895 163.363 15.5986 162.887L14.6557 164.651C15.1994 164.942 15.591 165.34 15.8575 165.857L17.6354 164.941ZM15.6054 162.891C14.7043 162.4 13.6411 162.183 12.4638 162.183L12.4638 164.183C13.4029 164.183 14.1154 164.357 14.6489 164.647L15.6054 162.891ZM12.4638 162.183C11.2252 162.183 10.1144 162.397 9.18008 162.881L10.1012 164.657C10.6725 164.36 11.4439 164.183 12.4638 164.183L12.4638 162.183ZM9.18671 162.878C8.26328 163.348 7.54385 164.033 7.06514 164.927L8.82836 165.871C9.10249 165.359 9.51231 164.957 10.0946 164.66L9.18671 162.878ZM7.06714 164.923C6.59887 165.789 6.38212 166.771 6.38212 167.839L8.38212 167.839C8.38212 167.045 8.54178 166.401 8.82635 165.875L7.06714 164.923ZM6.38212 167.839L6.38212 172.75L8.38212 172.75L8.38212 167.839L6.38212 167.839ZM0.79831 169.126L23.8949 169.126L23.8949 167.126L0.79831 167.126L0.79831 169.126ZM22.8949 168.126L22.8949 172.505L24.8949 172.505L24.8949 168.126L22.8949 168.126ZM23.8949 171.505L0.79831 171.505L0.79831 173.505L23.8949 173.505L23.8949 171.505ZM1.79831 172.505L1.79831 168.126L-0.20169 168.126L-0.20169 172.505L1.79831 172.505ZM18.1634 136.784L17.6879 137.664L17.6908 137.665L18.1634 136.784ZM21.9879 140.449L22.8579 139.956L22.8572 139.954L21.9879 140.449ZM21.9773 150.868L21.109 150.372L21.9773 150.868ZM18.1527 154.522L18.6252 155.403L18.1527 154.522ZM6.01848 154.522L6.49102 153.641H6.49101L6.01848 154.522ZM2.20456 150.868L3.07453 150.375L3.0728 150.372L2.20456 150.868ZM2.20456 140.449L3.07282 140.945L3.0755 140.94L2.20456 140.449ZM6.01848 136.784L6.49102 137.665L6.49392 137.664L6.01848 136.784ZM8.19178 140.8L8.58645 141.719L8.59163 141.717L8.19178 140.8ZM5.78411 142.729L6.61944 143.278L5.78411 142.729ZM5.78411 148.567L6.61944 148.017L5.78411 148.567ZM8.19178 150.505L7.79192 151.422L7.79711 151.424L8.19178 150.505ZM15.9901 150.505L16.3847 151.424L16.3899 151.422L15.9901 150.505ZM18.3977 148.567L17.5624 148.017L18.3977 148.567ZM18.3977 142.729L17.5624 143.278L18.3977 142.729ZM15.9901 140.8L15.5902 141.717L15.5954 141.719L15.9901 140.8ZM12.0909 136.431C14.3456 136.431 16.1975 136.858 17.6879 137.664L18.6388 135.904C16.7912 134.906 14.5948 134.431 12.0909 134.431L12.0909 136.431ZM17.6908 137.665C19.2048 138.477 20.3371 139.569 21.1187 140.943L22.8572 139.954C21.8774 138.232 20.46 136.881 18.6359 135.903L17.6908 137.665ZM21.118 140.942C21.899 142.32 22.2983 143.88 22.2983 145.648L24.2983 145.648C24.2983 143.565 23.824 141.66 22.8579 139.956L21.118 140.942ZM22.2983 145.648C22.2983 147.429 21.8955 148.995 21.109 150.372L22.8455 151.364C23.8204 149.658 24.2983 147.744 24.2983 145.648L22.2983 145.648ZM21.109 150.372C20.3278 151.739 19.1953 152.828 17.6802 153.641L18.6252 155.403C20.4482 154.426 21.8654 153.079 22.8455 151.364L21.109 150.372ZM17.6802 153.641C16.1887 154.44 14.3391 154.864 12.0909 154.864L12.0909 156.864C14.5871 156.864 16.7787 156.393 18.6252 155.403L17.6802 153.641ZM12.0909 154.864C9.83511 154.864 7.98214 154.44 6.49102 153.641L5.54595 155.403C7.39289 156.393 9.58821 156.864 12.0909 156.864L12.0909 154.864ZM6.49101 153.641C4.97647 152.828 3.84846 151.74 3.07453 150.375L1.3346 151.361C2.30782 153.078 3.72242 154.425 5.54595 155.403L6.49101 153.641ZM3.0728 150.372C2.2863 148.995 1.88354 147.429 1.88354 145.648L-0.116463 145.648C-0.116463 147.744 0.361452 149.658 1.33632 151.364L3.0728 150.372ZM1.88354 145.648C1.88354 143.882 2.28567 142.322 3.0728 140.945L1.33632 139.953C0.362091 141.657 -0.116463 143.564 -0.116463 145.648L1.88354 145.648ZM3.0755 140.94C3.84976 139.568 4.97765 138.477 6.49101 137.665L5.54595 135.903C3.72124 136.881 2.30652 138.233 1.33363 139.957L3.0755 140.94ZM6.49392 137.664C7.98437 136.858 9.83626 136.431 12.0909 136.431L12.0909 134.431C9.58707 134.431 7.39066 134.906 5.54304 135.904L6.49392 137.664ZM12.0909 139.108C10.4558 139.108 9.01095 139.352 7.79193 139.884L8.59163 141.717C9.48908 141.325 10.6437 141.108 12.0909 141.108L12.0909 139.108ZM7.79711 139.881C6.58811 140.401 5.61943 141.16 4.94878 142.179L6.61944 143.278C7.04254 142.635 7.67896 142.109 8.58644 141.719L7.79711 139.881ZM4.94878 142.179C4.28179 143.192 3.96379 144.362 3.96379 145.648L5.96379 145.648C5.96379 144.703 6.19268 143.927 6.61944 143.278L4.94878 142.179ZM3.96379 145.648C3.96379 146.934 4.28179 148.103 4.94878 149.116L6.61944 148.017C6.19268 147.368 5.96379 146.592 5.96379 145.648L3.96379 145.648ZM4.94878 149.116C5.61845 150.134 6.58523 150.896 7.79193 151.422L8.59163 149.589C7.68184 149.192 7.04352 148.661 6.61944 148.017L4.94878 149.116ZM7.79711 151.424C9.01454 151.947 10.4574 152.187 12.0909 152.187L12.0909 150.187C10.642 150.187 9.48549 149.973 8.58644 149.587L7.79711 151.424ZM12.0909 152.187C13.7244 152.187 15.1673 151.947 16.3847 151.424L15.5954 149.587C14.6964 149.973 13.5398 150.187 12.0909 150.187L12.0909 152.187ZM16.3899 151.422C17.5966 150.896 18.5634 150.134 19.2331 149.116L17.5624 148.017C17.1383 148.661 16.5 149.192 15.5902 149.589L16.3899 151.422ZM19.2331 149.116C19.9001 148.103 20.2181 146.934 20.2181 145.648L18.2181 145.648C18.2181 146.592 17.9892 147.368 17.5624 148.017L19.2331 149.116ZM20.2181 145.648C20.2181 144.362 19.9001 143.192 19.2331 142.179L17.5624 143.278C17.9892 143.927 18.2181 144.703 18.2181 145.648L20.2181 145.648ZM19.2331 142.179C18.5624 141.16 17.5937 140.401 16.3847 139.881L15.5954 141.719C16.5029 142.109 17.1393 142.635 17.5624 143.278L19.2331 142.179ZM16.3899 139.884C15.1709 139.352 13.7261 139.108 12.0909 139.108L12.0909 141.108C13.5382 141.108 14.6928 141.325 15.5902 141.717L16.3899 139.884ZM23 132.014L23 133.014L24 133.014L24 132.014L23 132.014ZM1.18183 132.014L0.181833 132.014L0.181833 133.014L1.18183 133.014L1.18183 132.014ZM2.12999 119.176L3.00892 119.653L3.01115 119.649L2.12999 119.176ZM4.74007 116.513L5.2205 117.39L5.22714 117.387L4.74007 116.513ZM14.9993 119.24L14.1124 119.702L14.1136 119.705L14.9993 119.24ZM15.9262 129.01L15.9262 130.01L16.9262 130.01L16.9262 129.01L15.9262 129.01ZM12.2294 129.01L11.2294 129.01L11.2294 130.01L12.2294 130.01L12.2294 129.01ZM11.7713 122.074L12.6546 121.605L12.6525 121.601L11.7713 122.074ZM10.4823 120.775L10.017 121.66L10.0213 121.662L10.4823 120.775ZM6.67899 120.775L7.13998 121.662L7.14691 121.658L7.15378 121.655L6.67899 120.775ZM5.41124 122.074L6.2969 122.539L6.30128 122.53L5.41124 122.074ZM4.95314 127.401L3.95314 127.401L3.95314 128.401L4.95314 128.401L4.95314 127.401ZM23 127.401L24 127.401L24 126.401L23 126.401L23 127.401ZM23 131.014L1.18183 131.014L1.18183 133.014L23 133.014L23 131.014ZM2.18183 132.014L2.18183 123.406L0.181834 123.406L0.181833 132.014L2.18183 132.014ZM2.18183 123.406C2.18183 121.877 2.47366 120.64 3.00891 119.653L1.25107 118.7C0.52211 120.043 0.181834 121.625 0.181834 123.406L2.18183 123.406ZM3.01115 119.649C3.54838 118.648 4.28233 117.904 5.22049 117.39L4.25966 115.636C2.9677 116.344 1.96159 117.375 1.24883 118.704L3.01115 119.649ZM5.22714 117.387C6.16613 116.863 7.27239 116.586 8.5753 116.586L8.5753 114.586C6.98048 114.586 5.52992 114.928 4.253 115.64L5.22714 117.387ZM8.5753 116.586C9.8763 116.586 10.981 116.866 11.9192 117.395L12.9018 115.653C11.6241 114.932 10.172 114.586 8.5753 114.586L8.5753 116.586ZM11.9192 117.395C12.8496 117.92 13.5792 118.679 14.1124 119.702L15.8862 118.778C15.1836 117.43 14.1874 116.378 12.9018 115.653L11.9192 117.395ZM14.1136 119.705C14.6394 120.708 14.9262 121.968 14.9262 123.523L16.9262 123.523C16.9262 121.726 16.595 120.131 15.885 118.776L14.1136 119.705ZM14.9262 123.523L14.9262 129.01L16.9262 129.01L16.9262 123.523L14.9262 123.523ZM15.9262 128.01L12.2294 128.01L12.2294 130.01L15.9262 130.01L15.9262 128.01ZM13.2294 129.01L13.2294 124.269L11.2294 124.269L11.2294 129.01L13.2294 129.01ZM13.2294 124.269C13.2294 123.274 13.0594 122.368 12.6546 121.605L10.8881 122.543C11.0941 122.931 11.2294 123.488 11.2294 124.269L13.2294 124.269ZM12.6525 121.601C12.2521 120.855 11.6819 120.271 10.9432 119.887L10.0213 121.662C10.3764 121.846 10.6656 122.128 10.8902 122.547L12.6525 121.601ZM10.9475 119.889C10.2303 119.512 9.43087 119.338 8.5753 119.338L8.5753 121.338C9.15439 121.338 9.62623 121.454 10.017 121.66L10.9475 119.889ZM8.5753 119.338C7.71515 119.338 6.91418 119.511 6.2042 119.894L7.15378 121.655C7.52335 121.455 7.98658 121.338 8.5753 121.338L8.5753 119.338ZM6.218 119.887C5.47504 120.273 4.90801 120.863 4.52119 121.618L6.30128 122.53C6.51106 122.121 6.78919 121.844 7.13998 121.662L6.218 119.887ZM4.52562 121.61C4.12293 122.378 3.95314 123.289 3.95314 124.29L5.95314 124.29C5.95314 123.501 6.08875 122.935 6.29686 122.539L4.52562 121.61ZM3.95314 124.29L3.95314 127.401L5.95314 127.401L5.95314 124.29L3.95314 124.29ZM4.95314 128.401L23 128.401L23 126.401L4.95314 126.401L4.95314 128.401ZM22 127.401L22 132.014L24 132.014L24 127.401L22 127.401ZM1.18183 112.59L0.181834 112.59L0.181834 113.59L1.18183 113.59L1.18183 112.59ZM1.18183 106.901L0.802574 105.976L0.181835 106.23L0.181834 106.901L1.18183 106.901ZM15.8409 100.893L16.2202 101.818L16.8409 101.563L16.8409 100.893L15.8409 100.893ZM15.8409 100.637L16.8409 100.637L16.8409 99.966L16.2202 99.7116L15.8409 100.637ZM1.18184 94.6284L0.181835 94.6284L0.181835 95.2992L0.802574 95.5537L1.18184 94.6284ZM1.18184 88.9395L1.18184 87.9395L0.181835 87.9395L0.181835 88.9395L1.18184 88.9395ZM23 88.9395L24 88.9395L24 87.9395L23 87.9395L23 88.9395ZM23 93.4139L23 94.4139L24 94.4139L24 93.4139L23 93.4139ZM8.79902 93.4139L8.79902 92.4139L7.79902 92.4139L7.79902 93.4139L8.79902 93.4139ZM8.79902 93.595L7.79902 93.595L7.79902 94.2716L8.42715 94.5233L8.79902 93.595ZM22.8935 99.2413L23.8935 99.2413L23.8935 98.5646L23.2654 98.313L22.8935 99.2413ZM22.8935 102.288L23.2642 103.217L23.8935 102.966L23.8935 102.288L22.8935 102.288ZM8.74575 107.934L8.37509 107.006L7.74575 107.257L7.74575 107.934L8.74575 107.934ZM8.74575 108.116L7.74575 108.116L7.74575 109.116L8.74575 109.116L8.74575 108.116ZM23 108.116L24 108.116L24 107.116L23 107.116L23 108.116ZM23 112.59L23 113.59L24 113.59L24 112.59L23 112.59ZM2.18183 112.59L2.18183 106.901L0.181834 106.901L0.181834 112.59L2.18183 112.59ZM1.5611 107.826L16.2202 101.818L15.4617 99.9673L0.802574 105.976L1.5611 107.826ZM16.8409 100.893L16.8409 100.637L14.8409 100.637L14.8409 100.893L16.8409 100.893ZM16.2202 99.7116L1.5611 93.7031L0.802574 95.5537L15.4617 101.562L16.2202 99.7116ZM2.18184 94.6284L2.18184 88.9395L0.181835 88.9395L0.181835 94.6284L2.18184 94.6284ZM1.18184 89.9395L23 89.9395L23 87.9395L1.18184 87.9395L1.18184 89.9395ZM22 88.9395L22 93.4139L24 93.4139L24 88.9395L22 88.9395ZM23 92.4139L8.79902 92.4139L8.79902 94.4139L23 94.4139L23 92.4139ZM7.79902 93.4139L7.79902 93.595L9.79902 93.595L9.79902 93.4139L7.79902 93.4139ZM8.42715 94.5233L22.5216 100.17L23.2654 98.313L9.1709 92.6667L8.42715 94.5233ZM21.8935 99.2413L21.8935 102.288L23.8935 102.288L23.8935 99.2413L21.8935 99.2413ZM22.5228 101.359L8.37509 107.006L9.11642 108.863L23.2642 103.217L22.5228 101.359ZM7.74575 107.934L7.74575 108.116L9.74575 108.116L9.74575 107.934L7.74575 107.934ZM8.74575 109.116L23 109.116L23 107.116L8.74575 107.116L8.74575 109.116ZM22 108.116L22 112.59L24 112.59L24 108.116L22 108.116ZM23 111.59L1.18183 111.59L1.18183 113.59L23 113.59L23 111.59ZM23 81.3782L24 81.3782L24 80.6519L23.3094 80.4272L23 81.3782ZM23 86.3214L22.6737 87.2666L24 87.7245L24 86.3214L23 86.3214ZM1.18184 78.7894L0.181836 78.7894L0.181836 79.5021L0.855518 79.7347L1.18184 78.7894ZM1.18184 72.8448L0.855931 71.8994L0.181836 72.1318L0.181836 72.8448L1.18184 72.8448ZM23 65.3235L24 65.3235L24 63.921L22.6741 64.3781L23 65.3235ZM23 70.2667L23.3088 71.2178L24 70.9934L24 70.2667L23 70.2667ZM6.16763 75.7319L5.85882 74.7808L5.16763 75.0052L5.16763 75.7319L6.16763 75.7319ZM6.16763 75.9023L5.16763 75.9023L5.16763 76.6286L5.85827 76.8533L6.16763 75.9023ZM14.424 81.6871L13.424 81.6871L13.424 82.6871L14.424 82.6871L14.424 81.6871ZM14.424 70.011L14.424 69.011L13.424 69.011L13.424 70.011L14.424 70.011ZM18.0249 70.011L19.0249 70.011L19.0249 69.011L18.0249 69.011L18.0249 70.011ZM18.0249 81.6871L18.0249 82.6871L19.0249 82.6871L19.0249 81.6871L18.0249 81.6871ZM22 81.3782L22 86.3214L24 86.3214L24 81.3782L22 81.3782ZM23.3263 85.3761L1.50815 77.8441L0.855518 79.7347L22.6737 87.2666L23.3263 85.3761ZM2.18184 78.7894L2.18184 72.8448L0.181836 72.8448L0.181836 78.7894L2.18184 78.7894ZM1.50774 73.7902L23.3259 66.2689L22.6741 64.3781L0.855931 71.8994L1.50774 73.7902ZM22 65.3235L22 70.2667L24 70.2667L24 65.3235L22 65.3235ZM22.6912 69.3156L5.85882 74.7808L6.47645 76.683L23.3088 71.2178L22.6912 69.3156ZM5.16763 75.7319L5.16763 75.9023L7.16763 75.9023L7.16763 75.7319L5.16763 75.7319ZM5.85827 76.8533L22.6907 82.3291L23.3094 80.4272L6.47699 74.9514L5.85827 76.8533ZM15.424 81.6871L15.424 70.011L13.424 70.011L13.424 81.6871L15.424 81.6871ZM14.424 71.011L18.0249 71.011L18.0249 69.011L14.424 69.011L14.424 71.011ZM17.0249 70.011L17.0249 81.6871L19.0249 81.6871L19.0249 70.011L17.0249 70.011ZM18.0249 80.6871L14.424 80.6871L14.424 82.6871L18.0249 82.6871L18.0249 80.6871ZM19.3139 41.6783L19.344 40.6787L18.3139 40.6477L18.3139 41.6783L19.3139 41.6783ZM28.1563 41.9446L29.1563 41.9446L29.1563 40.9743L28.1864 40.9451L28.1563 41.9446ZM28.1563 46.3338L28.1563 47.3338L29.1563 47.3338L29.1563 46.3338L28.1563 46.3338ZM23 46.3338L23 45.3338L22 45.3338L22 46.3338L23 46.3338ZM23 47.8679L23 48.8679L24 48.8679L24 47.8679L23 47.8679ZM19.3139 47.8679L18.3139 47.8679L18.3139 48.8679L19.3139 48.8679L19.3139 47.8679ZM23 62.6974L23 63.6974L24 63.6975L24 62.6975L23 62.6974ZM1.18184 62.6974L0.181836 62.6974L0.181836 63.6974L1.18184 63.6974L1.18184 62.6974ZM1.18184 58.2656L1.18184 57.2656L0.181837 57.2656L0.181837 58.2656L1.18184 58.2656ZM19.2926 58.2656L19.2926 59.2656L20.2926 59.2656L20.2926 58.2656L19.2926 58.2656ZM19.2926 49.1889L20.2926 49.1889L20.2926 48.1889L19.2926 48.1889L19.2926 49.1889ZM1.18184 49.1889L0.181837 49.1889L0.181837 50.1889L1.18184 50.1889L1.18184 49.1889ZM1.18184 44.7038L1.18184 43.7038L0.181837 43.7038L0.181837 44.7038L1.18184 44.7038ZM23 44.7038L24 44.7038L24 43.7038L23 43.7038L23 44.7038ZM19.2838 42.6778L28.1262 42.9442L28.1864 40.9451L19.344 40.6787L19.2838 42.6778ZM27.1563 41.9446L27.1563 46.3338L29.1563 46.3338L29.1563 41.9446L27.1563 41.9446ZM28.1563 45.3338L23 45.3338L23 47.3338L28.1563 47.3338L28.1563 45.3338ZM22 46.3338L22 47.8679L24 47.8679L24 46.3338L22 46.3338ZM23 46.8679L19.3139 46.8679L19.3139 48.8679L23 48.8679L23 46.8679ZM20.3139 47.8679L20.3139 41.6783L18.3139 41.6783L18.3139 47.8679L20.3139 47.8679ZM23 61.6974L1.18184 61.6974L1.18184 63.6974L23 63.6974L23 61.6974ZM2.18184 62.6974L2.18184 58.2656L0.181837 58.2656L0.181836 62.6974L2.18184 62.6974ZM1.18184 59.2656L19.2926 59.2656L19.2926 57.2656L1.18184 57.2656L1.18184 59.2656ZM20.2926 58.2656L20.2926 49.1889L18.2926 49.1889L18.2926 58.2656L20.2926 58.2656ZM19.2926 48.1889L1.18184 48.1889L1.18184 50.1889L19.2926 50.1889L19.2926 48.1889ZM2.18184 49.1889L2.18184 44.7038L0.181837 44.7038L0.181837 49.1889L2.18184 49.1889ZM1.18184 45.7038L23 45.7038L23 43.7038L1.18184 43.7038L1.18184 45.7038ZM22 44.7038L22 62.6974L24 62.6975L24 44.7038L22 44.7038ZM1.18184 38.8791L0.181837 38.8791L0.181837 39.8791L1.18184 39.8791L1.18184 38.8791ZM1.18184 34.2768L1.18184 33.2768L0.181838 33.2768L0.181838 34.2768L1.18184 34.2768ZM14.9034 34.2768L14.9034 35.2768L15.9034 35.2768L15.9034 34.2768L14.9034 34.2768ZM14.9034 34.0957L15.9034 34.0957L15.9034 33.5695L15.4697 33.2715L14.9034 34.0957ZM1.18184 24.6675L0.181838 24.6675L0.181838 25.1936L0.615527 25.4916L1.18184 24.6675ZM1.18184 20.6298L1.18184 19.6298L0.181838 19.6298L0.181838 20.6298L1.18184 20.6298ZM23 20.6298L24 20.6298L24 19.6298L23 19.6298L23 20.6298ZM23 25.2427L23 26.2427L24 26.2427L24 25.2427L23 25.2427ZM9.26778 25.2427L9.26778 24.2427L8.26778 24.2427L8.26778 25.2427L9.26778 25.2427ZM9.26778 25.4025L8.26778 25.4025L8.26778 25.9273L8.69959 26.2254L9.26778 25.4025ZM23 34.8841L24 34.8841L24 34.3593L23.5682 34.0612L23 34.8841ZM23 38.8791L23 39.8791L24 39.8791L24 38.8791L23 38.8791ZM2.18184 38.8791L2.18184 34.2768L0.181838 34.2768L0.181837 38.8791L2.18184 38.8791ZM1.18184 35.2768L14.9034 35.2768L14.9034 33.2768L1.18184 33.2768L1.18184 35.2768ZM15.9034 34.2768L15.9034 34.0957L13.9034 34.0957L13.9034 34.2768L15.9034 34.2768ZM15.4697 33.2715L1.74815 23.8432L0.615527 25.4916L14.3371 34.9199L15.4697 33.2715ZM2.18184 24.6675L2.18184 20.6298L0.181838 20.6298L0.181838 24.6675L2.18184 24.6675ZM1.18184 21.6298L23 21.6298L23 19.6298L1.18184 19.6298L1.18184 21.6298ZM22 20.6298L22 25.2427L24 25.2427L24 20.6298L22 20.6298ZM23 24.2427L9.26778 24.2427L9.26778 26.2427L23 26.2427L23 24.2427ZM8.26778 25.2427L8.26778 25.4025L10.2678 25.4025L10.2678 25.2427L8.26778 25.2427ZM8.69959 26.2254L22.4318 35.707L23.5682 34.0612L9.83596 24.5796L8.69959 26.2254ZM22 34.8841L22 38.8791L24 38.8791L24 34.8841L22 34.8841ZM23 37.8791L1.18184 37.8791L1.18184 39.8791L23 39.8791L23 37.8791ZM23 0.0713819L24 0.0713819L24 -0.928618L23 -0.928618L23 0.0713819ZM23 4.67365L23 5.67365L24 5.67365L24 4.67365L23 4.67365ZM4.95315 4.67365L4.95315 3.67365L3.95315 3.67365L3.95315 4.67365L4.95315 4.67365ZM5.34732 10.0004L6.26298 9.59836L6.26068 9.5932L5.34732 10.0004ZM6.47658 11.3107L6.98199 10.4478L6.98199 10.4478L6.47658 11.3107ZM10.1094 11.3107L10.6257 12.1671L10.6257 12.1671L10.1094 11.3107ZM11.196 10.0004L12.1198 10.3834L11.196 10.0004ZM11.5583 2.79865L11.5583 1.79865L10.5583 1.79865L10.5583 2.79865L11.5583 2.79865ZM15.2656 2.79865L16.2656 2.79865L16.2656 1.79865L15.2656 1.79865L15.2656 2.79865ZM12.0483 15.5508L12.562 16.4088L12.5645 16.4072L12.0483 15.5508ZM4.54832 15.5721L4.04909 16.4386L4.05093 16.4396L4.54832 15.5721ZM2.06607 12.8981L2.9605 12.4509L2.95941 12.4487L2.06607 12.8981ZM1.18184 0.0713809L1.18184 -0.928619L0.181839 -0.928619L0.181839 0.0713809L1.18184 0.0713809ZM13.071 11.8434L12.071 11.8434L12.071 12.4367L12.5917 12.721L13.071 11.8434ZM13.071 6.86826L13.5423 5.98627L12.071 5.2001L12.071 6.86826L13.071 6.86826ZM23 12.1736L24 12.1736L24 11.5742L23.4713 11.2917L23 12.1736ZM23 17.266L22.5207 18.1436L24 18.9515L24 17.266L23 17.266ZM22 0.0713818L22 4.67365L24 4.67365L24 0.0713819L22 0.0713818ZM23 3.67365L4.95315 3.67365L4.95315 5.67365L23 5.67365L23 3.67365ZM3.95315 4.67365L3.95315 7.78445L5.95315 7.78445L5.95315 4.67365L3.95315 4.67365ZM3.95315 7.78445C3.95315 8.76306 4.09687 9.65134 4.43396 10.4075L6.26068 9.5932C6.0722 9.17041 5.95315 8.58139 5.95315 7.78445L3.95315 7.78445ZM4.43168 10.4023C4.76286 11.1567 5.27321 11.7648 5.97118 12.1736L6.98199 10.4478C6.68563 10.2743 6.44315 10.0088 6.26297 9.59836L4.43168 10.4023ZM5.97118 12.1736C6.65639 12.575 7.45202 12.7475 8.30897 12.7475L8.30897 10.7475C7.71705 10.7475 7.2911 10.6289 6.98199 10.4478L5.97118 12.1736ZM8.30897 12.7475C9.15946 12.7475 9.94987 12.5746 10.6257 12.1671L9.59305 10.4543C9.30302 10.6292 8.89313 10.7475 8.30897 10.7475L8.30897 12.7475ZM10.6257 12.1671C11.3129 11.7528 11.8066 11.1386 12.1198 10.3834L10.2723 9.61734C10.1025 10.0269 9.87177 10.2863 9.59305 10.4543L10.6257 12.1671ZM12.1198 10.3834C12.4273 9.6416 12.5583 8.76938 12.5583 7.80576L10.5583 7.80576C10.5583 8.60349 10.4477 9.19434 10.2723 9.61734L12.1198 10.3834ZM12.5583 7.80576L12.5583 2.79865L10.5583 2.79865L10.5583 7.80576L12.5583 7.80576ZM11.5583 3.79865L15.2656 3.79865L15.2656 1.79865L11.5583 1.79865L11.5583 3.79865ZM14.2656 2.79865L14.2656 8.55148L16.2656 8.55148L16.2656 2.79865L14.2656 2.79865ZM14.2656 8.55148C14.2656 10.1131 14.0062 11.3886 13.5286 12.411L15.3407 13.2574C15.9712 11.9076 16.2656 10.3279 16.2656 8.55148L14.2656 8.55148ZM13.5286 12.411C13.0515 13.4324 12.385 14.1802 11.5321 14.6943L12.5645 16.4072C13.7855 15.6713 14.7099 14.608 15.3407 13.2574L13.5286 12.411ZM11.5347 14.6928C10.6732 15.2085 9.61166 15.4883 8.30897 15.4883L8.30897 17.4883C9.90401 17.4883 11.3354 17.1431 12.562 16.4088L11.5347 14.6928ZM8.30897 15.4883C7.01113 15.4883 5.93515 15.2145 5.0457 14.7046L4.05093 16.4396C5.29216 17.1512 6.72329 17.4883 8.30897 17.4883L8.30897 15.4883ZM5.04754 14.7056C4.15422 14.1909 3.45996 13.4498 2.9605 12.4509L1.17164 13.3453C1.83696 14.6759 2.79753 15.7175 4.04909 16.4386L5.04754 14.7056ZM2.95941 12.4487C2.4557 11.4474 2.18184 10.1993 2.18184 8.66867L0.181839 8.66867C0.181839 10.4335 0.497466 12.0051 1.17273 13.3475L2.95941 12.4487ZM2.18184 8.66867L2.18184 0.071381L0.181839 0.0713809L0.181839 8.66867L2.18184 8.66867ZM1.18184 1.07138L23 1.07138L23 -0.928618L1.18184 -0.928619L1.18184 1.07138ZM14.071 11.8434L14.071 6.86826L12.071 6.86826L12.071 11.8434L14.071 11.8434ZM12.5998 7.75024L22.5287 13.0556L23.4713 11.2917L13.5423 5.98627L12.5998 7.75024ZM22 12.1736L22 17.266L24 17.266L24 12.1736L22 12.1736ZM23.4793 16.3883L13.5504 10.9658L12.5917 12.721L22.5207 18.1436L23.4793 16.3883Z" fill="#192435" fill-opacity="0.67" mask="url(#path-1-outside-1_219_165)"/>
</svg>
