<svg width="14" height="19" viewBox="0 0 14 19" fill="none" xmlns="http://www.w3.org/2000/svg">
<path opacity="0.48" d="M3.5 0C2.5375 0 1.75 0.777273 1.75 1.72727V5.18182H3.5V2.59091H12.25V16.4091H3.5V13.8182H1.75V17.2727C1.75 18.2227 2.5375 19 3.5 19H12.25C13.2125 19 14 18.2227 14 17.2727V1.72727C14 0.777273 13.2125 0 12.25 0H3.5ZM2.625 6.90909C1.1375 6.90909 0 8.03182 0 9.5C0 10.9682 1.1375 12.0909 2.625 12.0909C3.7625 12.0909 4.725 11.4 5.075 10.3636H7V12.0909H8.75V10.3636H10.5V8.63636H5.075C4.725 7.6 3.7625 6.90909 2.625 6.90909ZM2.625 8.63636C3.15 8.63636 3.5 8.98182 3.5 9.5C3.5 10.0182 3.15 10.3636 2.625 10.3636C2.1 10.3636 1.75 10.0182 1.75 9.5C1.75 8.98182 2.1 8.63636 2.625 8.63636Z" fill="#192435"/>
</svg>
